<svg viewBox="0 0 32 32" xml:space="preserve" xmlns="http://www.w3.org/2000/svg"><path fill="none" d="M0 0h32v32H0z"></path><path d="M30.766 27.531A8.952 8.952 0 0 0 32 23a8.99 8.99 0 0 0-4-7.482V2H4v18h10.522a8.933 8.933 0 0 0-.464 2H4l-4 8h17.349A8.97 8.97 0 0 0 23 32a8.962 8.962 0 0 0 5.649-2H32l-1.234-2.469zM6 18V4h20v10.523A8.951 8.951 0 0 0 23 14a8.986 8.986 0 0 0-7.483 4H6zm10.115 5A6.898 6.898 0 0 1 23 16.115 6.898 6.898 0 0 1 29.883 23 6.898 6.898 0 0 1 23 29.883 6.898 6.898 0 0 1 16.115 23z" fill="#6ac5dc" class="fill-000000"></path><path d="m18 23 2-2 2 2 4-4 2 2-6 6z" fill="#6ac5dc" class="fill-000000"></path></svg>