<svg width="105" height="31" viewBox="0 0 105 31" fill="none" xmlns="http://www.w3.org/2000/svg">
<g clip-path="url(#clip0_10_54671)">
<path d="M15.0491 30.0364C12.7456 30.0364 10.4481 29.9403 8.17367 29.5438C4.04523 28.8241 1.37235 26.3184 0.640564 22.1929C-0.216359 17.3617 -0.229373 12.4885 0.690618 7.6663C1.40539 3.91926 3.74891 1.48364 7.50395 0.737838C12.4543 -0.24522 17.4687 -0.231205 22.422 0.69279C26.3683 1.42858 28.7748 3.96631 29.4716 7.92157C30.3075 12.6697 30.3065 17.4548 29.4716 22.2039C28.7578 26.2573 26.0229 28.8461 21.9745 29.5388C19.6831 29.9313 17.3706 30.0394 15.0501 30.0354L15.0491 30.0364ZM15.0551 6.68023C15.0381 6.68023 15.022 6.68023 15.005 6.68023C12.8157 6.70426 12.5864 6.84341 11.6564 8.82855C10.4601 11.3823 9.54014 14.0412 8.70124 16.728C8.20971 18.3017 7.75922 19.8884 7.49394 21.5212C7.34178 22.4572 7.58404 22.8336 8.46999 23.0549C9.21579 23.2411 9.97861 23.3181 10.7384 23.4182C11.1248 23.4693 11.3621 23.3081 11.5313 22.9628C11.8777 22.254 12.4583 21.8476 13.2361 21.7184C14.3633 21.5312 15.4946 21.5512 16.6248 21.6724C17.5307 21.7695 18.2285 22.1949 18.6279 23.0458C18.7661 23.3412 19.0103 23.4543 19.3227 23.4202C20.0675 23.3402 20.8153 23.2711 21.5451 23.0879C22.5511 22.8346 22.7964 22.4993 22.5972 21.4742C21.7463 17.0864 20.2707 12.8989 18.4547 8.82955C17.5698 6.84741 17.3676 6.75932 15.2052 6.68123C15.1552 6.67923 15.1051 6.68123 15.0551 6.67923V6.68023Z" fill="#01B388"/>
<path d="M47.8936 12.127C47.8936 11.4823 47.9026 10.9418 47.8895 10.4012C47.8835 10.1649 47.9136 10.0318 48.2039 10.0378C48.9537 10.0548 49.7045 10.0538 50.4543 10.0378C50.7336 10.0318 50.7797 10.1469 50.7787 10.3932C50.7726 14.3284 50.7706 18.2636 50.7807 22.1989C50.7807 22.4922 50.6886 22.5643 50.4113 22.5583C49.6945 22.5412 48.9767 22.5332 48.2609 22.5613C47.9296 22.5743 47.8745 22.4491 47.8865 22.1588C47.9086 21.6313 47.8925 21.1027 47.8925 20.5711C47.8355 20.5791 47.7914 20.5721 47.7814 20.5871C46.0916 23.284 42.1123 23.5143 39.7057 21.36C36.6294 18.606 36.7996 13.3954 40.0591 10.9398C42.2865 9.26195 45.4349 9.42612 47.2298 11.3212C47.4411 11.5444 47.6223 11.7967 47.8915 12.126L47.8936 12.127ZM44.1645 20.0696C46.3329 20.0736 47.9496 18.4558 47.9496 16.2825C47.9496 14.1452 46.3279 12.5285 44.1846 12.5275C42.0663 12.5275 40.3845 14.1752 40.3715 16.2635C40.3584 18.3878 42.0292 20.0646 44.1645 20.0686V20.0696Z" fill="#131B23"/>
<path d="M90.6816 11.9969C90.6816 11.4844 90.6966 10.9438 90.6756 10.4052C90.6646 10.1199 90.7557 10.0308 91.041 10.0388C91.7407 10.0568 92.4425 10.0699 93.1412 10.0348C93.5347 10.0158 93.5567 10.193 93.5557 10.5043C93.5467 13.3053 93.5507 16.1073 93.5507 18.9084C93.5507 19.9755 93.5377 21.0427 93.5587 22.1098C93.5647 22.4402 93.5086 22.5803 93.1352 22.5623C92.4365 22.5293 91.7347 22.5383 91.035 22.5593C90.7407 22.5683 90.6666 22.4652 90.6766 22.1889C90.6956 21.6473 90.6826 21.1047 90.6826 20.446C90.3362 20.8835 90.086 21.2489 89.7556 21.5452C88.0818 23.0488 85.4259 23.2771 83.3747 21.9967C81.1704 20.6202 80.2103 18.534 80.3094 15.9822C80.4035 13.5646 81.4657 11.6556 83.613 10.4603C85.7112 9.29201 88.9347 9.53127 90.5184 11.9519C90.5414 11.9869 90.5545 12.053 90.6826 11.9969H90.6816ZM86.7994 20.0706C88.9617 20.0716 90.5955 18.4409 90.5935 16.2825C90.5925 14.1613 88.9517 12.5315 86.8154 12.5295C84.6751 12.5275 83.0093 14.1863 83.0123 16.3166C83.0163 18.4168 84.6831 20.0696 86.7984 20.0706H86.7994Z" fill="#131B23"/>
<path d="M73.8585 22.7715C70.3557 22.7725 67.6568 20.3349 67.3345 16.8802C67.0161 13.4765 69.1985 10.5463 72.5471 9.87963C75.0878 9.37308 77.7006 10.3782 78.982 12.3383C79.1952 12.6646 79.2843 12.8648 78.8228 13.0721C78.2332 13.3373 77.6836 13.6937 77.123 14.0201C76.9438 14.1242 76.8427 14.1602 76.6865 13.943C75.7325 12.6136 74.3961 12.2732 72.8814 12.6436C71.3918 13.008 70.5329 14.0441 70.2366 15.5267C69.9042 17.1945 70.6841 18.8333 72.1246 19.5861C73.5572 20.3359 75.4402 20.0686 76.5274 18.9624C76.5744 18.9144 76.6154 18.8613 76.6665 18.8192C76.8767 18.6451 76.8967 18.2326 77.2011 18.2336C77.4433 18.2336 77.6856 18.4318 77.9259 18.546C78.3773 18.7602 78.8178 18.9984 79.2793 19.1866C79.5776 19.3078 79.5937 19.4279 79.4415 19.6952C78.5135 21.3209 77.093 22.2419 75.297 22.6374C74.8235 22.7415 74.342 22.7795 73.8565 22.7715H73.8585Z" fill="#131B23"/>
<path d="M102.129 13.1511C102.129 10.1849 102.134 7.21874 102.121 4.25255C102.12 3.91819 102.18 3.78705 102.547 3.80407C103.212 3.8361 103.882 3.84111 104.546 3.80307C104.946 3.78004 105.001 3.93021 105 4.28258C104.99 10.215 104.99 16.1474 105 22.0787C105 22.4171 104.932 22.5472 104.568 22.5292C103.936 22.4982 103.3 22.4932 102.669 22.5302C102.245 22.5552 102.113 22.4571 102.116 21.9977C102.141 19.0485 102.129 16.0993 102.129 13.1491V13.1511Z" fill="#131B23"/>
<path d="M96.4138 13.1391C96.4138 10.1879 96.4228 7.23677 96.4027 4.2866C96.3997 3.87816 96.5249 3.79006 96.9013 3.80708C97.55 3.83711 98.2017 3.83211 98.8514 3.80808C99.1697 3.79707 99.2818 3.87715 99.2698 4.21452C99.2438 4.98034 99.2618 5.74817 99.2618 6.51499C99.2618 11.6836 99.2568 16.8521 99.2718 22.0207C99.2728 22.4401 99.1617 22.5583 98.7483 22.5332C98.1166 22.4952 97.4809 22.5032 96.8482 22.5312C96.4989 22.5472 96.4038 22.4441 96.4058 22.0918C96.4198 19.1075 96.4138 16.1233 96.4138 13.1391Z" fill="#131B23"/>
<path d="M62.1859 11.6986C63.4713 9.91265 65.2612 9.33703 66.9811 10.0568C67.2914 10.1869 67.4356 10.2911 67.2274 10.6565C66.915 11.204 66.6617 11.7857 66.4055 12.3633C66.3014 12.5985 66.1872 12.6866 65.9209 12.6196C63.8597 12.103 62.226 13.6867 62.2019 15.6388C62.1759 17.7721 62.1779 19.9054 62.1959 22.0377C62.1999 22.4371 62.0958 22.5513 61.7024 22.5312C61.0707 22.4982 60.435 22.5002 59.8034 22.5312C59.435 22.5493 59.3259 22.4552 59.3289 22.0687C59.3479 19.519 59.3389 16.9692 59.3389 14.4185C59.3389 13.0851 59.3499 11.7516 59.3309 10.4182C59.3258 10.0878 59.4189 9.99174 59.7503 10.0038C60.4491 10.0298 61.1498 10.0218 61.8496 10.0068C62.1068 10.0007 62.2049 10.0708 62.1909 10.3411C62.1699 10.7516 62.1849 11.164 62.1849 11.6976L62.1859 11.6986Z" fill="#131B23"/>
<path d="M53.6047 16.2245C53.6047 14.2914 53.6117 12.3573 53.5977 10.4242C53.5957 10.1069 53.6637 9.99077 54.0051 10.0038C54.7039 10.0318 55.4046 10.0228 56.1044 10.0068C56.3717 10.0008 56.4828 10.0528 56.4828 10.3582C56.4728 14.2914 56.4728 18.2246 56.4828 22.1579C56.4828 22.4392 56.4107 22.5353 56.1214 22.5273C55.4056 22.5092 54.6879 22.5032 53.9721 22.5293C53.6387 22.5413 53.5987 22.4091 53.5997 22.1228C53.6107 20.1567 53.6057 18.1896 53.6057 16.2225L53.6047 16.2245Z" fill="#131B23"/>
<path d="M55.0382 7.48907C54.0231 7.48907 53.2033 6.65818 53.2093 5.63608C53.2143 4.65102 54.0412 3.82313 55.0262 3.81512C56.0323 3.80711 56.8842 4.64902 56.8832 5.64909C56.8822 6.66419 56.0543 7.49007 55.0382 7.48907Z" fill="#131B23"/>
</g>
<defs>
<clipPath id="clip0_10_54671">
<rect width="105" height="30.0363" fill="white"/>
</clipPath>
</defs>
</svg>
