<svg width="29" height="28" viewBox="0 0 29 28" fill="none" xmlns="http://www.w3.org/2000/svg">
<circle cx="14.9595" cy="13.9932" r="14" fill="#EBAB3F" fill-opacity="0.14"/>
<path d="M20.0239 16.7176V10.2686C20.0239 8.54549 17.6841 7.24561 14.5825 7.24561C11.4809 7.24561 9.14111 8.54549 9.14111 10.2686V16.7176C9.14111 18.4407 11.4809 19.7406 14.5825 19.7406C17.6841 19.7406 20.0239 18.4407 20.0239 16.7176ZM18.8147 16.7176C18.8147 17.5762 17.0775 18.5314 14.5825 18.5314C12.0875 18.5314 10.3503 17.5762 10.3503 16.7176V15.446L10.6526 15.6193C11.6643 16.1977 13.0589 16.5161 14.5825 16.5161C16.1061 16.5161 17.5007 16.1977 18.5124 15.6173L18.8147 15.4439V16.7176ZM18.8147 13.4931C18.8147 14.3516 17.0775 15.3069 14.5825 15.3069C12.0875 15.3069 10.3503 14.3516 10.3503 13.4931V12.2214L10.6526 12.3948C11.6643 12.9732 13.0589 13.2916 14.5825 13.2916C16.1061 13.2916 17.5007 12.9732 18.5124 12.3927L18.8147 12.2194V13.4931ZM14.5825 12.0824C12.0875 12.0824 10.3503 11.1271 10.3503 10.2686C10.3503 9.41006 12.0875 8.4548 14.5825 8.4548C17.0775 8.4548 18.8147 9.41006 18.8147 10.2686C18.8147 11.1271 17.0775 12.0824 14.5825 12.0824Z" fill="#EBAB3F"/>
</svg>
