<svg width="824" height="460" viewBox="0 0 824 460" fill="none" xmlns="http://www.w3.org/2000/svg">
<g opacity="0.6">
<path d="M794.932 226.08C794.932 226.328 794.762 226.531 794.445 226.606C793.88 226.745 793.322 226.878 792.751 226.999C792.447 227.063 792.271 227.213 792.186 227.462C792.045 227.895 791.889 228.329 791.741 228.763C791.635 229.075 791.41 229.237 791.085 229.237C790.753 229.237 790.52 229.075 790.407 228.757C790.259 228.323 790.104 227.89 789.955 227.456C789.878 227.207 789.694 227.063 789.391 226.993C788.854 226.878 788.325 226.751 787.796 226.629C787.414 226.542 787.217 226.363 787.217 226.091C787.217 225.82 787.414 225.629 787.803 225.542C788.339 225.421 788.875 225.294 789.419 225.172C789.708 225.109 789.878 224.964 789.955 224.727C790.104 224.288 790.259 223.848 790.407 223.409C790.513 223.096 790.739 222.935 791.064 222.935C791.395 222.935 791.628 223.096 791.741 223.414C791.889 223.854 792.045 224.293 792.193 224.733C792.271 224.97 792.447 225.109 792.736 225.172C793.287 225.294 793.845 225.421 794.388 225.548C794.734 225.629 794.925 225.82 794.932 226.08Z" fill="white"/>
<path d="M785.051 282.741C785.051 282.967 784.881 283.158 784.564 283.227C783.999 283.354 783.441 283.476 782.87 283.591C782.566 283.655 782.39 283.788 782.305 284.019C782.164 284.424 782.009 284.823 781.86 285.222C781.754 285.511 781.529 285.656 781.204 285.661C780.872 285.661 780.639 285.511 780.526 285.222C780.378 284.823 780.223 284.424 780.075 284.019C779.997 283.788 779.813 283.655 779.51 283.597C778.974 283.493 778.444 283.372 777.915 283.262C777.534 283.181 777.336 283.013 777.336 282.765C777.336 282.51 777.534 282.337 777.922 282.256C778.458 282.14 778.995 282.025 779.538 281.915C779.828 281.857 779.997 281.724 780.075 281.504C780.223 281.099 780.378 280.695 780.526 280.29C780.632 280.001 780.858 279.856 781.183 279.851C781.515 279.851 781.747 280.001 781.86 280.29C782.009 280.695 782.164 281.099 782.312 281.504C782.39 281.718 782.566 281.851 782.856 281.909C783.406 282.019 783.964 282.14 784.507 282.256C784.853 282.331 785.044 282.51 785.051 282.747V282.741Z" fill="white"/>
<path d="M609.299 200.64C609.299 200.865 609.129 201.056 608.812 201.126C608.247 201.253 607.689 201.374 607.118 201.49C606.814 201.553 606.638 201.686 606.553 201.918C606.412 202.322 606.257 202.721 606.108 203.12C606.002 203.409 605.777 203.554 605.452 203.56C605.12 203.56 604.887 203.409 604.774 203.12C604.626 202.721 604.471 202.322 604.323 201.918C604.245 201.686 604.061 201.553 603.758 201.496C603.222 201.392 602.692 201.27 602.163 201.16C601.782 201.079 601.584 200.912 601.584 200.663C601.584 200.409 601.782 200.235 602.17 200.154C602.706 200.039 603.243 199.923 603.786 199.813C604.076 199.755 604.245 199.622 604.323 199.403C604.471 198.998 604.626 198.593 604.774 198.188C604.88 197.899 605.106 197.755 605.431 197.749C605.763 197.749 605.995 197.899 606.108 198.188C606.257 198.593 606.412 198.998 606.56 199.403C606.638 199.617 606.814 199.75 607.104 199.807C607.654 199.917 608.212 200.039 608.755 200.154C609.101 200.229 609.292 200.409 609.299 200.646V200.64Z" fill="white"/>
<path d="M789.942 91.9831C789.942 92.1218 789.836 92.2317 789.632 92.278C789.279 92.3531 788.919 92.4283 788.559 92.4977C788.361 92.5324 788.255 92.6191 788.199 92.7521C788.107 92.9949 788.008 93.232 787.916 93.4748C787.846 93.6482 787.705 93.735 787.5 93.7407C787.288 93.7407 787.14 93.654 787.07 93.4748C786.978 93.232 786.872 92.9949 786.787 92.7521C786.738 92.6133 786.618 92.5324 786.427 92.4977C786.088 92.4341 785.757 92.3647 785.418 92.2953C785.178 92.249 785.051 92.145 785.051 91.9947C785.051 91.8443 785.178 91.7403 785.425 91.6882C785.764 91.6188 786.11 91.5495 786.448 91.4801C786.632 91.4454 786.738 91.3644 786.787 91.2314C786.879 90.9886 786.978 90.7458 787.077 90.4972C787.147 90.3237 787.288 90.237 787.493 90.2312C787.705 90.2312 787.853 90.3179 787.924 90.4972C788.022 90.74 788.121 90.9828 788.213 91.2314C788.262 91.3644 788.375 91.4396 788.559 91.4743C788.912 91.5437 789.258 91.613 789.611 91.6824C789.829 91.7287 789.949 91.8328 789.956 91.9773L789.942 91.9831Z" fill="#E84B10"/>
<path d="M821.755 45.693C821.755 45.8318 821.649 45.9417 821.444 45.9879C821.091 46.0631 820.731 46.1382 820.371 46.2076C820.174 46.2423 820.068 46.329 820.011 46.462C819.92 46.7049 819.821 46.9419 819.729 47.1848C819.658 47.3582 819.517 47.4449 819.313 47.4507C819.101 47.4507 818.953 47.364 818.882 47.1848C818.79 46.9419 818.684 46.7049 818.6 46.462C818.55 46.3233 818.43 46.2423 818.24 46.2076C817.901 46.144 817.569 46.0746 817.23 46.0053C816.99 45.959 816.863 45.8549 816.863 45.7046C816.863 45.5543 816.99 45.4502 817.237 45.3982C817.576 45.3288 817.922 45.2594 818.261 45.19C818.444 45.1553 818.55 45.0744 818.6 44.9414C818.691 44.6986 818.79 44.4557 818.889 44.2071C818.96 44.0337 819.101 43.9469 819.306 43.9412C819.517 43.9412 819.665 44.0279 819.736 44.2071C819.835 44.45 819.934 44.6928 820.025 44.9414C820.075 45.0744 820.188 45.1496 820.371 45.1842C820.724 45.2536 821.07 45.323 821.423 45.3924C821.642 45.4386 821.762 45.5427 821.769 45.6873L821.755 45.693Z" fill="white"/>
<path d="M754.7 56.1008C754.7 56.2395 754.594 56.3494 754.39 56.3956C754.037 56.4708 753.677 56.546 753.317 56.6153C753.119 56.65 753.013 56.7368 752.957 56.8697C752.865 57.1126 752.766 57.3496 752.674 57.5925C752.604 57.7659 752.463 57.8526 752.258 57.8584C752.046 57.8584 751.898 57.7717 751.827 57.5925C751.736 57.3496 751.63 57.1126 751.545 56.8697C751.496 56.731 751.376 56.65 751.185 56.6153C750.846 56.5517 750.514 56.4824 750.176 56.413C749.936 56.3667 749.809 56.2627 749.809 56.1123C749.809 55.962 749.936 55.8579 750.183 55.8059C750.522 55.7365 750.867 55.6671 751.206 55.5977C751.39 55.5631 751.496 55.4821 751.545 55.3491C751.637 55.1063 751.736 54.8635 751.834 54.6148C751.905 54.4414 752.046 54.3547 752.251 54.3489C752.463 54.3489 752.611 54.4356 752.681 54.6148C752.78 54.8577 752.879 55.1005 752.971 55.3491C753.02 55.4821 753.133 55.5573 753.317 55.592C753.67 55.6613 754.015 55.7307 754.368 55.8001C754.587 55.8464 754.707 55.9504 754.714 56.095L754.7 56.1008Z" fill="#EBAB3F"/>
<path d="M576.831 59.5698C576.831 59.7085 576.725 59.8184 576.52 59.8646C576.167 59.9398 575.807 60.015 575.447 60.0843C575.25 60.119 575.144 60.2058 575.087 60.3387C574.996 60.5816 574.897 60.8186 574.805 61.0615C574.735 61.2349 574.593 61.3216 574.389 61.3274C574.177 61.3274 574.029 61.2407 573.958 61.0615C573.866 60.8186 573.761 60.5816 573.676 60.3387C573.626 60.2 573.506 60.119 573.316 60.0843C572.977 60.0207 572.645 59.9514 572.306 59.882C572.067 59.8357 571.939 59.7316 571.939 59.5813C571.939 59.431 572.066 59.3269 572.314 59.2749C572.652 59.2055 572.998 59.1361 573.337 59.0667C573.521 59.0321 573.626 58.9511 573.676 58.8181C573.768 58.5753 573.866 58.3324 573.965 58.0838C574.036 57.9104 574.177 57.8237 574.382 57.8179C574.593 57.8179 574.742 57.9046 574.812 58.0838C574.911 58.3267 575.01 58.5695 575.102 58.8181C575.151 58.9511 575.264 59.0263 575.447 59.061C575.8 59.1303 576.146 59.1997 576.499 59.2691C576.718 59.3154 576.838 59.4194 576.845 59.564L576.831 59.5698Z" fill="white"/>
<path d="M338.259 43.9587C338.259 44.0974 338.153 44.2073 337.948 44.2535C337.595 44.3287 337.235 44.4039 336.875 44.4733C336.678 44.5079 336.572 44.5947 336.515 44.7277C336.423 44.9705 336.325 45.2075 336.233 45.4504C336.162 45.6238 336.021 45.7106 335.816 45.7163C335.605 45.7163 335.456 45.6296 335.386 45.4504C335.294 45.2075 335.188 44.9705 335.104 44.7277C335.054 44.5889 334.934 44.5079 334.744 44.4733C334.405 44.4097 334.073 44.3403 333.734 44.2709C333.494 44.2246 333.367 44.1206 333.367 43.9702C333.367 43.8199 333.494 43.7158 333.741 43.6638C334.08 43.5944 334.426 43.525 334.765 43.4557C334.948 43.421 335.054 43.34 335.104 43.207C335.195 42.9642 335.294 42.7214 335.393 42.4727C335.464 42.2993 335.605 42.2126 335.809 42.2068C336.021 42.2068 336.169 42.2935 336.24 42.4727C336.339 42.7156 336.438 42.9584 336.529 43.207C336.579 43.34 336.692 43.4152 336.875 43.4499C337.228 43.5193 337.574 43.5886 337.927 43.658C338.146 43.7043 338.266 43.8083 338.273 43.9529L338.259 43.9587Z" fill="#68C6DD"/>
<path d="M298.733 1.75188C298.733 1.89065 298.627 2.0005 298.423 2.04676C298.07 2.12192 297.71 2.19708 297.35 2.26646C297.152 2.30115 297.046 2.38788 296.99 2.52086C296.898 2.7637 296.799 3.00075 296.707 3.24359C296.637 3.41704 296.496 3.50377 296.291 3.50955C296.079 3.50955 295.931 3.42283 295.86 3.24359C295.769 3.00075 295.663 2.7637 295.578 2.52086C295.529 2.3821 295.409 2.30115 295.218 2.26646C294.879 2.20286 294.548 2.13348 294.209 2.0641C293.969 2.01785 293.842 1.91377 293.842 1.76345C293.842 1.61312 293.969 1.50905 294.216 1.45701C294.555 1.38763 294.901 1.31825 295.239 1.24887C295.423 1.21418 295.529 1.13323 295.578 1.00025C295.67 0.757413 295.769 0.51458 295.868 0.265962C295.938 0.0925082 296.079 0.0057818 296.284 0C296.496 0 296.644 0.0867265 296.715 0.265962C296.813 0.508798 296.912 0.751631 297.004 1.00025C297.053 1.13323 297.166 1.20839 297.35 1.24308C297.703 1.31246 298.049 1.38185 298.401 1.45123C298.62 1.49748 298.74 1.60156 298.747 1.7461L298.733 1.75188Z" fill="white"/>
<path d="M175.919 49.7411C175.919 49.8799 175.813 49.9898 175.608 50.036C175.255 50.1112 174.895 50.1863 174.535 50.2557C174.338 50.2904 174.232 50.3771 174.175 50.5101C174.084 50.753 173.985 50.99 173.893 51.2328C173.822 51.4063 173.681 51.493 173.477 51.4988C173.265 51.4988 173.117 51.4121 173.046 51.2328C172.954 50.99 172.848 50.753 172.764 50.5101C172.714 50.3714 172.594 50.2904 172.404 50.2557C172.065 50.1921 171.733 50.1227 171.394 50.0534C171.154 50.0071 171.027 49.903 171.027 49.7527C171.027 49.6024 171.154 49.4983 171.401 49.4463C171.74 49.3769 172.086 49.3075 172.425 49.2381C172.608 49.2034 172.714 49.1225 172.764 48.9895C172.855 48.7467 172.954 48.5038 173.053 48.2552C173.124 48.0818 173.265 47.995 173.47 47.9893C173.681 47.9893 173.83 48.076 173.9 48.2552C173.999 48.4981 174.098 48.7409 174.189 48.9895C174.239 49.1225 174.352 49.1977 174.535 49.2323C174.888 49.3017 175.234 49.3711 175.587 49.4405C175.806 49.4867 175.926 49.5908 175.933 49.7354L175.919 49.7411Z" fill="white"/>
<path d="M31.2215 49.7411C31.2215 49.8799 31.1156 49.9898 30.9109 50.036C30.558 50.1112 30.198 50.1863 29.8381 50.2557C29.6404 50.2904 29.5345 50.3771 29.4781 50.5101C29.3863 50.753 29.2875 50.99 29.1958 51.2328C29.1252 51.4063 28.984 51.493 28.7793 51.4988C28.5676 51.4988 28.4193 51.4121 28.3487 51.2328C28.257 50.99 28.1511 50.753 28.0664 50.5101C28.017 50.3714 27.897 50.2904 27.7064 50.2557C27.3676 50.1921 27.0359 50.1227 26.6971 50.0534C26.4571 50.0071 26.3301 49.903 26.3301 49.7527C26.3301 49.6024 26.4571 49.4983 26.7042 49.4463C27.043 49.3769 27.3888 49.3075 27.7276 49.2381C27.9111 49.2034 28.017 49.1225 28.0664 48.9895C28.1582 48.7467 28.257 48.5038 28.3558 48.2552C28.4264 48.0818 28.5676 47.995 28.7722 47.9893C28.984 47.9893 29.1322 48.076 29.2028 48.2552C29.3016 48.4981 29.4004 48.7409 29.4922 48.9895C29.5416 49.1225 29.6545 49.1977 29.8381 49.2323C30.191 49.3017 30.5368 49.3711 30.8897 49.4405C31.1086 49.4867 31.2285 49.5908 31.2356 49.7354L31.2215 49.7411Z" fill="#F7A915"/>
<path d="M89.8059 148.609C89.8059 148.702 89.7283 148.777 89.5871 148.806C89.333 148.858 89.0789 148.904 88.8248 148.95C88.6836 148.973 88.606 149.031 88.5707 149.124C88.5072 149.286 88.4366 149.448 88.366 149.609C88.3166 149.725 88.2178 149.783 88.0696 149.789C87.9214 149.789 87.8155 149.731 87.7661 149.609C87.6955 149.448 87.6249 149.286 87.5614 149.124C87.5261 149.031 87.4414 148.979 87.3073 148.95C87.0673 148.91 86.8273 148.858 86.5873 148.812C86.4179 148.777 86.3262 148.713 86.3262 148.609C86.3262 148.505 86.4179 148.436 86.5873 148.407C86.8273 148.361 87.0743 148.314 87.3143 148.268C87.4414 148.245 87.519 148.193 87.5543 148.1C87.6178 147.938 87.6884 147.771 87.759 147.609C87.8084 147.493 87.9072 147.435 88.0554 147.43C88.2037 147.43 88.3096 147.488 88.359 147.609C88.4296 147.771 88.5001 147.938 88.5636 148.1C88.5989 148.187 88.6766 148.239 88.8107 148.262C89.0577 148.309 89.3118 148.355 89.5589 148.401C89.7142 148.43 89.7989 148.505 89.8059 148.598V148.609Z" fill="white"/>
<path d="M35.4583 253.838C35.4583 253.93 35.3806 254.006 35.2395 254.035C34.9854 254.087 34.7313 254.133 34.4772 254.179C34.336 254.202 34.2583 254.26 34.2231 254.353C34.1595 254.514 34.089 254.676 34.0184 254.838C33.969 254.954 33.8701 255.012 33.7219 255.017C33.5737 255.017 33.4678 254.96 33.4184 254.838C33.3478 254.676 33.2772 254.514 33.2137 254.353C33.1784 254.26 33.0937 254.208 32.9596 254.179C32.7196 254.139 32.4797 254.087 32.2397 254.04C32.0703 254.006 31.9785 253.942 31.9785 253.838C31.9785 253.734 32.0703 253.664 32.2397 253.636C32.4797 253.589 32.7267 253.543 32.9667 253.497C33.0937 253.474 33.1714 253.422 33.2067 253.329C33.2702 253.167 33.3408 253 33.4114 252.838C33.4608 252.722 33.5596 252.664 33.7078 252.658C33.856 252.658 33.9619 252.716 34.0113 252.838C34.0819 253 34.1525 253.167 34.216 253.329C34.2513 253.416 34.3289 253.468 34.463 253.491C34.7101 253.537 34.9642 253.584 35.2112 253.63C35.3665 253.659 35.4512 253.734 35.4583 253.826V253.838Z" fill="#68C6DD"/>
<path d="M117.335 298.936C117.335 299.029 117.258 299.104 117.116 299.133C116.862 299.185 116.608 299.231 116.354 299.277C116.213 299.3 116.135 299.358 116.1 299.451C116.036 299.613 115.966 299.774 115.895 299.936C115.846 300.052 115.747 300.11 115.599 300.116C115.451 300.116 115.345 300.058 115.295 299.936C115.225 299.774 115.154 299.613 115.091 299.451C115.055 299.358 114.971 299.306 114.837 299.277C114.597 299.237 114.357 299.185 114.117 299.138C113.947 299.104 113.855 299.04 113.855 298.936C113.855 298.832 113.947 298.763 114.117 298.734C114.357 298.687 114.604 298.641 114.844 298.595C114.971 298.572 115.048 298.52 115.084 298.427C115.147 298.265 115.218 298.098 115.288 297.936C115.338 297.82 115.437 297.762 115.585 297.757C115.733 297.757 115.839 297.814 115.888 297.936C115.959 298.098 116.029 298.265 116.093 298.427C116.128 298.514 116.206 298.566 116.34 298.589C116.587 298.635 116.841 298.682 117.088 298.728C117.243 298.757 117.328 298.832 117.335 298.925V298.936Z" fill="white"/>
<path d="M132.863 312.813C132.863 312.905 132.785 312.98 132.644 313.009C132.39 313.061 132.136 313.108 131.881 313.154C131.74 313.177 131.663 313.235 131.627 313.327C131.564 313.489 131.493 313.651 131.423 313.813C131.373 313.929 131.274 313.987 131.126 313.992C130.978 313.992 130.872 313.934 130.823 313.813C130.752 313.651 130.682 313.489 130.618 313.327C130.583 313.235 130.498 313.183 130.364 313.154C130.124 313.113 129.884 313.061 129.644 313.015C129.475 312.98 129.383 312.917 129.383 312.813C129.383 312.709 129.475 312.639 129.644 312.61C129.884 312.564 130.131 312.518 130.371 312.472C130.498 312.449 130.576 312.397 130.611 312.304C130.674 312.142 130.745 311.974 130.816 311.813C130.865 311.697 130.964 311.639 131.112 311.633C131.26 311.633 131.366 311.691 131.416 311.813C131.486 311.974 131.557 312.142 131.62 312.304C131.656 312.391 131.733 312.443 131.867 312.466C132.114 312.512 132.368 312.558 132.616 312.605C132.771 312.634 132.855 312.709 132.863 312.801V312.813Z" fill="#EBAB3F"/>
<path d="M119.45 83.8536C119.45 83.9461 119.373 84.0212 119.232 84.0501C118.978 84.1022 118.723 84.1484 118.469 84.1947C118.328 84.2178 118.251 84.2756 118.215 84.3681C118.152 84.53 118.081 84.6919 118.011 84.8538C117.961 84.9694 117.862 85.0273 117.714 85.033C117.566 85.033 117.46 84.9752 117.411 84.8538C117.34 84.6919 117.269 84.53 117.206 84.3681C117.171 84.2756 117.086 84.2236 116.952 84.1947C116.712 84.1542 116.472 84.1022 116.232 84.0559C116.062 84.0212 115.971 83.9576 115.971 83.8536C115.971 83.7495 116.062 83.6801 116.232 83.6512C116.472 83.6049 116.719 83.5587 116.959 83.5124C117.086 83.4893 117.164 83.4373 117.199 83.3448C117.262 83.1829 117.333 83.0152 117.404 82.8533C117.453 82.7377 117.552 82.6799 117.7 82.6741C117.848 82.6741 117.954 82.7319 118.004 82.8533C118.074 83.0152 118.145 83.1829 118.208 83.3448C118.243 83.4315 118.321 83.4835 118.455 83.5067C118.702 83.5529 118.956 83.5992 119.203 83.6454C119.359 83.6743 119.443 83.7495 119.45 83.842V83.8536Z" fill="#68C6DD"/>
<path d="M323.436 123.169C323.436 123.308 323.33 123.418 323.126 123.464C322.773 123.539 322.413 123.615 322.053 123.684C321.855 123.719 321.749 123.805 321.693 123.938C321.601 124.181 321.502 124.418 321.411 124.661C321.34 124.835 321.199 124.921 320.994 124.927C320.782 124.927 320.634 124.84 320.564 124.661C320.472 124.418 320.366 124.181 320.281 123.938C320.232 123.8 320.112 123.719 319.921 123.684C319.583 123.62 319.251 123.551 318.912 123.482C318.672 123.435 318.545 123.331 318.545 123.181C318.545 123.031 318.672 122.927 318.919 122.874C319.258 122.805 319.604 122.736 319.942 122.666C320.126 122.632 320.232 122.551 320.281 122.418C320.373 122.175 320.472 121.932 320.571 121.683C320.641 121.51 320.782 121.423 320.987 121.417C321.199 121.417 321.347 121.504 321.418 121.683C321.516 121.926 321.615 122.169 321.707 122.418C321.756 122.551 321.869 122.626 322.053 122.661C322.406 122.73 322.752 122.799 323.105 122.869C323.323 122.915 323.443 123.019 323.45 123.164L323.436 123.169Z" fill="white"/>
<path d="M598.004 414.566C598.004 414.815 597.834 415.017 597.517 415.093C596.952 415.231 596.394 415.364 595.823 415.486C595.519 415.549 595.343 415.7 595.258 415.948C595.117 416.382 594.962 416.816 594.813 417.249C594.708 417.561 594.482 417.723 594.157 417.723C593.825 417.723 593.592 417.561 593.479 417.243C593.331 416.81 593.176 416.376 593.028 415.943C592.95 415.694 592.767 415.549 592.463 415.48C591.927 415.364 591.397 415.237 590.868 415.116C590.487 415.029 590.289 414.85 590.289 414.578C590.289 414.306 590.487 414.115 590.875 414.029C591.411 413.907 591.948 413.78 592.491 413.659C592.781 413.595 592.95 413.451 593.028 413.213C593.176 412.774 593.331 412.335 593.479 411.895C593.585 411.583 593.811 411.421 594.136 411.421C594.468 411.421 594.7 411.583 594.813 411.901C594.962 412.34 595.117 412.78 595.265 413.219C595.343 413.456 595.519 413.595 595.809 413.659C596.359 413.78 596.917 413.907 597.46 414.034C597.806 414.115 597.997 414.306 598.004 414.566Z" fill="#68C6DD"/>
<path d="M534.876 346.22C534.876 346.364 534.77 346.486 534.586 346.532C534.255 346.613 533.916 346.694 533.584 346.763C533.401 346.804 533.295 346.89 533.252 347.041C533.168 347.301 533.076 347.555 532.984 347.816C532.921 348.001 532.787 348.093 532.596 348.099C532.398 348.099 532.257 348.006 532.194 347.816C532.102 347.555 532.01 347.301 531.925 347.041C531.876 346.89 531.77 346.804 531.587 346.769C531.269 346.7 530.958 346.624 530.641 346.549C530.415 346.497 530.295 346.387 530.295 346.231C530.295 346.069 530.415 345.954 530.641 345.902C530.958 345.827 531.283 345.751 531.601 345.682C531.77 345.642 531.876 345.561 531.918 345.416C532.003 345.156 532.095 344.896 532.187 344.63C532.25 344.445 532.384 344.352 532.575 344.346C532.772 344.346 532.914 344.445 532.977 344.63C533.069 344.89 533.161 345.15 533.245 345.416C533.295 345.555 533.394 345.642 533.57 345.676C533.902 345.751 534.226 345.827 534.551 345.902C534.756 345.948 534.869 346.064 534.876 346.22Z" fill="white"/>
<path d="M1.57768 160.769C2.35732 160.769 2.98934 160.251 2.98934 159.612C2.98934 158.974 2.35732 158.456 1.57768 158.456C0.798039 158.456 0.166016 158.974 0.166016 159.612C0.166016 160.251 0.798039 160.769 1.57768 160.769Z" fill="white"/>
<path d="M67.2195 185.053C67.6093 185.053 67.9253 184.794 67.9253 184.475C67.9253 184.155 67.6093 183.896 67.2195 183.896C66.8297 183.896 66.5137 184.155 66.5137 184.475C66.5137 184.794 66.8297 185.053 67.2195 185.053Z" fill="#EBAB3F"/>
<path d="M60.1609 365.445C60.5507 365.445 60.8667 365.186 60.8667 364.867C60.8667 364.547 60.5507 364.288 60.1609 364.288C59.7711 364.288 59.4551 364.547 59.4551 364.867C59.4551 365.186 59.7711 365.445 60.1609 365.445Z" fill="white"/>
<path d="M269.087 91.3882C269.477 91.3882 269.793 91.1292 269.793 90.8097C269.793 90.4902 269.477 90.2312 269.087 90.2312C268.697 90.2312 268.381 90.4902 268.381 90.8097C268.381 91.1292 268.697 91.3882 269.087 91.3882Z" fill="white"/>
<path d="M238.737 13.3333C239.127 13.3333 239.443 13.0743 239.443 12.7548C239.443 12.4353 239.127 12.1763 238.737 12.1763C238.347 12.1763 238.031 12.4353 238.031 12.7548C238.031 13.0743 238.347 13.3333 238.737 13.3333Z" fill="white"/>
<path d="M394.02 12.7557C394.41 12.7557 394.726 12.4966 394.726 12.1771C394.726 11.8576 394.41 11.5986 394.02 11.5986C393.63 11.5986 393.314 11.8576 393.314 12.1771C393.314 12.4966 393.63 12.7557 394.02 12.7557Z" fill="white"/>
<path d="M654.471 116.828C654.861 116.828 655.177 116.569 655.177 116.249C655.177 115.93 654.861 115.671 654.471 115.671C654.082 115.671 653.766 115.93 653.766 116.249C653.766 116.569 654.082 116.828 654.471 116.828Z" fill="white"/>
<path d="M601.534 338.849C601.924 338.849 602.24 338.59 602.24 338.27C602.24 337.951 601.924 337.692 601.534 337.692C601.144 337.692 600.828 337.951 600.828 338.27C600.828 338.59 601.144 338.849 601.534 338.849Z" fill="#EBAB3F"/>
<path d="M290.262 412.278C290.652 412.278 290.968 412.019 290.968 411.699C290.968 411.38 290.652 411.121 290.262 411.121C289.873 411.121 289.557 411.38 289.557 411.699C289.557 412.019 289.873 412.278 290.262 412.278Z" fill="white"/>
<path d="M60.8679 415.169C61.2578 415.169 61.5738 414.91 61.5738 414.59C61.5738 414.271 61.2578 414.012 60.8679 414.012C60.4781 414.012 60.1621 414.271 60.1621 414.59C60.1621 414.91 60.4781 415.169 60.8679 415.169Z" fill="#EBAB3F"/>
<path d="M242.972 448.124C243.752 448.124 244.384 447.606 244.384 446.968C244.384 446.329 243.752 445.811 242.972 445.811C242.193 445.811 241.561 446.329 241.561 446.968C241.561 447.606 242.193 448.124 242.972 448.124Z" fill="#E84B10"/>
<path d="M438.487 422.107C438.877 422.107 439.193 421.848 439.193 421.528C439.193 421.209 438.877 420.95 438.487 420.95C438.097 420.95 437.781 421.209 437.781 421.528C437.781 421.848 438.097 422.107 438.487 422.107Z" fill="#68C6DD"/>
<path d="M321.319 457.376C321.709 457.376 322.025 457.117 322.025 456.798C322.025 456.478 321.709 456.219 321.319 456.219C320.929 456.219 320.613 456.478 320.613 456.798C320.613 457.117 320.929 457.376 321.319 457.376Z" fill="#67C5DC"/>
<path d="M486.483 459.11C486.873 459.11 487.189 458.851 487.189 458.531C487.189 458.212 486.873 457.953 486.483 457.953C486.093 457.953 485.777 458.212 485.777 458.531C485.777 458.851 486.093 459.11 486.483 459.11Z" fill="#E84B10"/>
<path d="M505.542 407.652C505.932 407.652 506.248 407.393 506.248 407.074C506.248 406.754 505.932 406.495 505.542 406.495C505.152 406.495 504.836 406.754 504.836 407.074C504.836 407.393 505.152 407.652 505.542 407.652Z" fill="white"/>
<path d="M708.821 458.532C709.211 458.532 709.527 458.273 709.527 457.954C709.527 457.634 709.211 457.375 708.821 457.375C708.431 457.375 708.115 457.634 708.115 457.954C708.115 458.273 708.431 458.532 708.821 458.532Z" fill="white"/>
<path d="M655.178 30.679C655.568 30.679 655.884 30.42 655.884 30.1005C655.884 29.781 655.568 29.522 655.178 29.522C654.789 29.522 654.473 29.781 654.473 30.1005C654.473 30.42 654.789 30.679 655.178 30.679Z" fill="white"/>
<path d="M813.284 191.413C813.674 191.413 813.99 191.154 813.99 190.835C813.99 190.515 813.674 190.256 813.284 190.256C812.894 190.256 812.578 190.515 812.578 190.835C812.578 191.154 812.894 191.413 813.284 191.413Z" fill="white"/>
<path d="M731.407 383.947C731.797 383.947 732.113 383.688 732.113 383.368C732.113 383.049 731.797 382.79 731.407 382.79C731.017 382.79 730.701 383.049 730.701 383.368C730.701 383.688 731.017 383.947 731.407 383.947Z" fill="white"/>
<path d="M822.46 442.921C822.85 442.921 823.166 442.662 823.166 442.343C823.166 442.023 822.85 441.764 822.46 441.764C822.07 441.764 821.754 442.023 821.754 442.343C821.754 442.662 822.07 442.921 822.46 442.921Z" fill="white"/>
<path d="M393.313 78.6678C393.703 78.6678 394.019 78.4088 394.019 78.0893C394.019 77.7698 393.703 77.5107 393.313 77.5107C392.923 77.5107 392.607 77.7698 392.607 78.0893C392.607 78.4088 392.923 78.6678 393.313 78.6678Z" fill="#3A3339"/>
<path d="M52.3972 87.3406C52.7871 87.3406 53.1031 87.0816 53.1031 86.7621C53.1031 86.4426 52.7871 86.1836 52.3972 86.1836C52.0074 86.1836 51.6914 86.4426 51.6914 86.7621C51.6914 87.0816 52.0074 87.3406 52.3972 87.3406Z" fill="white"/>
</g>
</svg>
