<svg width="90" height="44" viewBox="0 0 90 44" fill="none" xmlns="http://www.w3.org/2000/svg">
<path d="M21.1703 30.6466V37.4929H19.1082V20.5995H24.5858C25.9817 20.5995 27.1554 21.0885 28.1283 22.0665C29.1117 23.0446 29.6087 24.2338 29.6087 25.6342C29.6087 27.0345 29.1117 28.2571 28.1283 29.224C27.166 30.1798 25.9922 30.6688 24.5858 30.6688H21.1703V30.6466ZM21.1703 22.6667V28.5683H24.6281C25.4529 28.5683 26.1297 28.2793 26.669 27.6903C27.2189 27.1123 27.5044 26.4122 27.5044 25.6119C27.5044 24.8117 27.2295 24.1449 26.669 23.5558C26.1297 22.9557 25.4529 22.6556 24.6281 22.6556H21.1703V22.6667Z" fill="#777677"/>
<path d="M35.1284 25.5563C36.6511 25.5563 37.8566 25.9897 38.7449 26.8455C39.6226 27.7013 40.0667 28.8794 40.0667 30.3687V37.4928H38.0892V35.8924H38.0047C37.1481 37.215 36.0166 37.8707 34.5891 37.8707C33.373 37.8707 32.3578 37.4928 31.5436 36.737C30.7294 35.9813 30.317 35.0366 30.317 33.903C30.317 32.7026 30.7505 31.7579 31.607 31.0466C32.4636 30.3353 33.6162 29.9797 35.0544 29.9797C36.281 29.9797 37.2962 30.2131 38.0892 30.691V30.1909C38.0892 29.4351 37.8037 28.7905 37.2327 28.2681C36.6617 27.7458 35.9955 27.479 35.2341 27.479C34.0815 27.479 33.1721 27.9903 32.4953 29.0128L30.6765 27.8124C31.6811 26.3009 33.1615 25.5452 35.1178 25.5452L35.1284 25.5563ZM32.453 33.9585C32.453 34.5253 32.6857 34.9921 33.1404 35.37C33.5951 35.7479 34.1344 35.9368 34.7477 35.9368C35.6148 35.9368 36.3867 35.6034 37.0741 34.9255C37.7509 34.2475 38.0998 33.4584 38.0998 32.547C37.4548 32.0136 36.5559 31.7468 35.4033 31.7468C34.5679 31.7468 33.87 31.958 33.299 32.3803C32.7385 32.8027 32.453 33.3361 32.453 33.9585Z" fill="#777677"/>
<path d="M42.4036 25.9339H44.3811V27.8233H44.4657C45.079 26.3452 46.3479 25.6005 48.2619 25.6005L48.6849 25.645V27.9122L47.7649 27.8233C46.8026 27.8233 46.0201 28.1345 45.3962 28.7569C44.7723 29.3793 44.4657 30.1684 44.4657 31.1242V37.4926H42.4036V25.9339ZM55.294 37.6815C54.3952 37.6815 53.6549 37.3926 53.0628 36.8035C52.4706 36.2256 52.1639 35.4143 52.1534 34.3695V27.9011H50.2182V25.9228H52.1534V22.3885H54.2154V25.9228H56.9119V27.9011H54.2154V33.6582C54.2154 34.4251 54.3529 34.9475 54.6384 35.2253C54.9239 35.5032 55.2411 35.6365 55.6007 35.6365C55.7699 35.6365 55.9285 35.6143 56.0871 35.581C56.2457 35.5365 56.3938 35.4921 56.5207 35.4254L57.1763 37.3592C56.637 37.5593 56.0131 37.6704 55.294 37.6704V37.6815Z" fill="#777677"/>
<path d="M58.995 25.9339H60.9724V27.5343H61.057C61.3743 26.9675 61.8501 26.5007 62.5057 26.1228C63.1614 25.745 63.8381 25.556 64.5361 25.556C65.879 25.556 66.9153 25.9561 67.645 26.7675C68.3746 27.5788 68.7342 28.7347 68.7342 30.2239V37.4926H66.6721V30.3684C66.6298 28.479 65.7204 27.5343 63.9545 27.5343C63.1296 27.5343 62.4423 27.89 61.8924 28.5791C61.3425 29.2792 61.057 30.1128 61.057 31.0908V37.4814H58.995V25.9228V25.9339Z" fill="#777677"/>
<path d="M76.1048 37.8704C74.4869 37.8704 73.1545 37.2925 72.1077 36.1255C71.0608 34.9585 70.532 33.4915 70.532 31.7132C70.532 29.935 71.0396 28.4901 72.0548 27.3121C73.0699 26.1451 74.3706 25.556 75.9568 25.556C77.543 25.556 78.8859 26.1117 79.8482 27.2231C80.8105 28.3346 81.2969 29.8905 81.2969 31.8799L81.2758 32.1133H72.6364C72.6681 33.247 73.0276 34.1583 73.715 34.8474C74.4023 35.5365 75.2271 35.881 76.1894 35.881C77.5113 35.881 78.537 35.1919 79.2878 33.8027L81.1277 34.7474C80.6307 35.7254 79.954 36.4812 79.0763 37.0369C78.1986 37.5926 77.2046 37.8593 76.1048 37.8593V37.8704ZM72.8056 30.324H79.1186C79.0551 29.5238 78.7485 28.8569 78.188 28.3346C77.6276 27.8122 76.8768 27.5455 75.9356 27.5455C75.1531 27.5455 74.4869 27.8011 73.9265 28.3012C73.366 28.8013 72.9959 29.4793 72.8161 30.3351L72.8056 30.324Z" fill="#777677"/>
<path d="M85.2623 37.4929H83.2003V25.9342H85.1777V27.8236H85.2623C85.4738 27.2124 85.9073 26.69 86.5524 26.2566C87.208 25.8231 87.8425 25.6119 88.477 25.6119C89.1114 25.6119 89.5873 25.7009 89.9997 25.8898L89.3758 27.9904C89.122 27.8792 88.7202 27.8236 88.1597 27.8236C87.3772 27.8236 86.7004 28.1571 86.1294 28.8128C85.5478 29.4685 85.2623 30.2465 85.2623 31.1245V37.4929Z" fill="#777677"/>
<path d="M23.7824 10.7194V12.1976H27.1345C27.0288 13.1312 26.6587 13.8536 26.0348 14.3649C25.4214 14.8761 24.6707 15.1317 23.7824 15.1317C22.7461 15.1317 21.879 14.7538 21.1705 13.987C20.462 13.2312 20.1024 12.3087 20.1024 11.2085C20.1024 10.1082 20.462 9.18569 21.1705 8.42993C21.879 7.66306 22.7567 7.28518 23.7824 7.28518C24.7552 7.28518 25.5906 7.64083 26.3097 8.34102L27.3037 7.29629C26.3097 6.30714 25.1359 5.80701 23.7824 5.80701C22.8624 5.80701 21.9953 6.05152 21.1811 6.54054C20.3668 7.01844 19.7323 7.68529 19.2671 8.52996C18.8124 9.3524 18.5797 10.2415 18.5797 11.1973C18.5797 12.1531 18.8124 13.0534 19.2671 13.8869C19.7218 14.7205 20.3668 15.3762 21.1811 15.8653C21.9953 16.3543 22.8624 16.5988 23.7824 16.5988C25.1677 16.5988 26.3203 16.1431 27.2297 15.2317C28.1285 14.3315 28.5832 13.1312 28.5832 11.6419C28.5832 11.2862 28.5621 10.9862 28.5092 10.7194H23.793H23.7824Z" fill="#487CBF"/>
<path d="M32.3899 9.65253C31.4488 9.65253 30.6557 9.98595 30.0212 10.6528C29.3868 11.3085 29.0695 12.131 29.0695 13.1312C29.0695 14.1315 29.3868 14.9317 30.0318 15.6097C30.6663 16.2765 31.4488 16.6099 32.3899 16.6099C33.3311 16.6099 34.1136 16.2765 34.7481 15.6097C35.3931 14.9317 35.7103 14.1093 35.7103 13.1312C35.7103 12.1532 35.3931 11.3196 34.7481 10.6528C34.1136 9.98595 33.3311 9.65253 32.3899 9.65253ZM33.7012 14.6316C33.3416 15.0317 32.9081 15.2318 32.3899 15.2318C31.8718 15.2318 31.4171 15.0317 31.0575 14.6316C30.698 14.2315 30.5182 13.7314 30.5182 13.1312C30.5182 12.5311 30.698 12.0198 31.0575 11.6308C31.4171 11.2307 31.8612 11.0307 32.3899 11.0307C32.9187 11.0307 33.3628 11.2307 33.7223 11.6308C34.0819 12.0198 34.2616 12.52 34.2616 13.1312C34.2616 13.7425 34.0819 14.2204 33.7117 14.6316H33.7012Z" fill="#EF372C"/>
<path d="M52.3334 6.18481H50.8846V16.3987H52.3334V6.18481Z" fill="#00AC4E"/>
<path d="M39.6335 9.65253C38.6924 9.65253 37.8993 9.98595 37.2648 10.6528C36.6303 11.3085 36.3131 12.131 36.3131 13.1312C36.3131 14.1315 36.6303 14.9317 37.2754 15.6097C37.9099 16.2765 38.6924 16.6099 39.6335 16.6099C40.5747 16.6099 41.3572 16.2765 41.9916 15.6097C42.6367 14.9317 42.9539 14.1093 42.9539 13.1312C42.9539 12.1532 42.6367 11.3196 41.9916 10.6528C41.3572 9.98595 40.5747 9.65253 39.6335 9.65253ZM40.9448 14.6316C40.5852 15.0317 40.1517 15.2318 39.6335 15.2318C39.1154 15.2318 38.6607 15.0317 38.3011 14.6316C37.9416 14.2315 37.7618 13.7314 37.7618 13.1312C37.7618 12.5311 37.9416 12.0198 38.3011 11.6308C38.6607 11.2307 39.1048 11.0307 39.6335 11.0307C40.1622 11.0307 40.6064 11.2307 40.9659 11.6308C41.3254 12.0198 41.5052 12.52 41.5052 13.1312C41.5052 13.7425 41.3254 14.2204 40.9553 14.6316H40.9448Z" fill="#FDB614"/>
<path d="M56.3198 15.2315C55.5902 15.2315 55.0614 14.8758 54.7125 14.1757L59.1326 12.2529L58.9846 11.8528C58.8683 11.5305 58.7202 11.2304 58.5299 10.9526C58.3395 10.6858 58.1281 10.4413 57.8848 10.2524C57.6416 10.0523 57.3773 9.90785 57.0812 9.79671C56.7851 9.69668 56.4784 9.64111 56.1506 9.64111C55.2624 9.64111 54.5221 9.97454 53.9194 10.6303C53.3272 11.2971 53.0311 12.1307 53.0311 13.1198C53.0311 14.109 53.3484 14.9314 53.9723 15.5983C54.5962 16.2651 55.3787 16.5985 56.3092 16.5985C57.483 16.5985 58.3924 16.0873 59.0586 15.0537L57.9271 14.2646C57.5147 14.9092 56.9754 15.2204 56.2987 15.2204L56.3198 15.2315ZM54.9768 11.575C55.347 11.186 55.7488 10.997 56.2035 10.997C56.489 10.997 56.7428 11.0637 56.9649 11.1971C57.1869 11.3305 57.3455 11.5083 57.4301 11.7306L54.4798 13.0198C54.4587 12.4307 54.6279 11.9528 54.9768 11.575Z" fill="#EF372C"/>
<path d="M48.5056 10.4305H48.4527C48.0403 9.90815 47.4587 9.65253 46.7079 9.65253C45.8513 9.65253 45.1111 9.99706 44.4767 10.675C43.8528 11.3641 43.5355 12.1754 43.5355 13.1312C43.5355 14.087 43.8528 14.8984 44.4767 15.5763C45.1217 16.2543 45.8619 16.5877 46.7079 16.5877C47.4481 16.5877 48.0297 16.321 48.4527 15.7986H48.5056V16.1543C48.5056 17.6102 47.9134 18.3437 46.7396 18.3437C46.3589 18.3437 46.0311 18.2326 45.735 17.9992C45.4389 17.7658 45.2169 17.4768 45.0688 17.099L43.7999 17.6547C43.9268 17.9659 44.0854 18.2437 44.2757 18.4882C44.4661 18.7438 44.6882 18.955 44.9419 19.1328C45.1957 19.3107 45.4707 19.4551 45.7773 19.5552C46.0734 19.6552 46.3907 19.7108 46.729 19.7108C47.7125 19.7108 48.4844 19.3996 49.0343 18.7661C49.5842 18.1437 49.8697 17.2434 49.8697 16.0876V9.85258H48.495V10.4194L48.5056 10.4305ZM48.0932 14.6428C47.7548 15.0429 47.3318 15.2318 46.8454 15.2318C46.3272 15.2318 45.8937 15.0317 45.5341 14.6316C45.1852 14.2315 45.0054 13.7314 45.0054 13.1423C45.0054 12.5533 45.1852 12.0421 45.5447 11.6419C45.9148 11.2307 46.3484 11.0196 46.8454 11.0196C47.3424 11.0196 47.7653 11.2196 48.0932 11.6197C48.4315 12.0309 48.6113 12.5422 48.6113 13.1312C48.6113 13.7203 48.4421 14.2204 48.0932 14.6316V14.6428Z" fill="#487CBF"/>
<path d="M10.5323 0.960938H0V43.0389H10.5323V0.960938Z" fill="#487CBF"/>
</svg>
