<svg width="29" height="29" viewBox="0 0 29 29" fill="none" xmlns="http://www.w3.org/2000/svg">
<circle cx="14.2842" cy="14.6599" r="14" fill="#68C6DD" fill-opacity="0.2"/>
<path d="M13.0825 10.8873C13.0825 10.5601 12.9134 10.2491 12.6298 10.0801L11.4025 9.31097C11.108 9.12006 10.7261 9.10915 10.4207 9.2837C10.1152 9.45279 9.92432 9.76915 9.92432 10.1182V11.6564C9.92432 12.0055 10.1152 12.3219 10.4207 12.491C10.5625 12.5673 10.7207 12.611 10.8789 12.611C11.0589 12.611 11.2334 12.5619 11.3861 12.4637L12.6134 11.6946C12.9025 11.5255 13.0825 11.2201 13.0825 10.8873ZM12.1989 11.0019L10.9661 11.771C10.9225 11.7928 10.868 11.7928 10.8243 11.771C10.7807 11.7491 10.7534 11.7001 10.7534 11.651V10.1182C10.7534 10.0691 10.7807 10.0201 10.8243 9.99824C10.8461 9.99824 10.8734 9.99824 10.8952 9.99824C10.917 9.99279 10.9443 9.99279 10.9661 9.99824L12.1934 10.7673C12.2589 10.8001 12.2807 10.8819 12.2425 10.9473C12.2316 10.9691 12.2152 10.9855 12.1934 10.9964H12.1989V11.0019Z" fill="#6AC5DC"/>
<path d="M20.7842 12.1145H15.7387V8.15991C15.7387 7.33082 15.0678 6.65991 14.2387 6.65991H8.78418C7.95509 6.65991 7.28418 7.33082 7.28418 8.15991V13.6145C7.28418 14.4435 7.95509 15.1145 8.78418 15.1145H12.7387V20.1599C12.7387 20.989 13.4096 21.6599 14.2387 21.6599H20.7842C21.6133 21.6599 22.2842 20.989 22.2842 20.1599V13.6145C22.2842 12.7854 21.6133 12.1145 20.7842 12.1145ZM8.78418 14.2963C8.40782 14.2963 8.10236 13.9908 8.10236 13.6145V8.15991C8.10236 7.78355 8.40782 7.47809 8.78418 7.47809H14.2387C14.6151 7.47809 14.9205 7.78355 14.9205 8.15991V12.1145H14.2387C13.4096 12.1145 12.7387 12.7854 12.7387 13.6145V14.2963H8.78418ZM21.466 20.1599C21.466 20.5363 21.1605 20.8417 20.7842 20.8417H14.2387C13.8624 20.8417 13.5569 20.5363 13.5569 20.1599V13.6145C13.5569 13.2381 13.8624 12.9326 14.2387 12.9326H20.7842C21.1605 12.9326 21.466 13.2381 21.466 13.6145V20.1599Z" fill="#6AC5DC"/>
<path d="M15.057 15.1144H18.3298C18.5534 15.1144 18.7389 14.929 18.7389 14.7054C18.7389 14.4817 18.5534 14.2963 18.3298 14.2963H15.057C14.8334 14.2963 14.6479 14.4817 14.6479 14.7054C14.6479 14.929 14.8334 15.1144 15.057 15.1144Z" fill="#6AC5DC"/>
<path d="M19.9661 16.478H15.057C14.8334 16.478 14.6479 16.6635 14.6479 16.8871C14.6479 17.1108 14.8334 17.2962 15.057 17.2962H19.9661C20.1898 17.2962 20.3752 17.1108 20.3752 16.8871C20.3752 16.6635 20.1898 16.478 19.9661 16.478Z" fill="#6AC5DC"/>
</svg>
