<svg width="28" height="28" viewBox="0 0 28 28" fill="none" xmlns="http://www.w3.org/2000/svg">
<circle cx="14" cy="13.9932" r="14" fill="#E74B10" fill-opacity="0.14"/>
<path d="M17.3177 15.9009L18.5702 15.0089C19.3361 15.3207 20.2089 14.9505 20.5197 14.1821C20.8304 13.4137 20.4615 12.5381 19.6956 12.2263C18.9297 11.9145 18.0569 12.2847 17.7461 13.0531C17.6643 13.2554 17.6274 13.4733 17.6381 13.6915L16.4667 14.5258C16.2456 14.2959 15.9964 14.095 15.7252 13.9275L15.8367 8.00984C15.8786 7.98568 15.918 7.96032 15.9563 7.9331C16.6835 7.41657 16.8557 6.40624 16.3408 5.67664C15.8259 4.94704 14.8189 4.77432 14.0917 5.29085C13.3645 5.80739 13.1923 6.81771 13.7072 7.54731C13.8354 7.729 13.9996 7.88226 14.1896 7.99738L14.0884 13.3789C12.479 13.2271 10.9503 14.1143 10.2792 15.5898L8.86831 15.3488C8.53924 14.5886 7.65816 14.2399 6.90032 14.5701C6.14259 14.9002 5.79511 15.7842 6.12418 16.5445C6.45325 17.3047 7.33432 17.6533 8.09216 17.3232C8.28274 17.2401 8.45392 17.1182 8.59492 16.9651L9.93572 17.1942C9.93702 17.9796 10.1823 18.7452 10.6374 19.3844C11.8507 21.1025 14.2224 21.5085 15.9349 20.2912C17.3241 19.3037 17.8892 17.5098 17.3177 15.9007V15.9009ZM12.0464 18.3811C11.3846 17.4441 11.6053 16.1463 12.5392 15.4822C13.4731 14.8182 14.7667 15.0396 15.4286 15.9766C16.0901 16.9132 15.87 18.2105 14.9367 18.8747C14.0023 19.5378 12.7094 19.3168 12.0463 18.3811H12.0464Z" fill="#E74B10"/>
</svg>
