<svg width="19" height="15" viewBox="0 0 19 15" fill="none" xmlns="http://www.w3.org/2000/svg">
<path d="M1.85 10.75V3.6C1.85 2.68991 1.85 2.23487 2.03529 1.88727C2.19827 1.5815 2.45834 1.33291 2.77822 1.17711C3.14187 1 3.61791 1 4.57 1H14.43C15.3821 1 15.8581 1 16.2218 1.17711C16.5417 1.33291 16.8017 1.5815 16.9647 1.88727C17.15 2.23487 17.15 2.68991 17.15 3.6V10.75H12.6133C12.4054 10.75 12.3015 10.75 12.2037 10.7724C12.1169 10.7924 12.034 10.8252 11.958 10.8697C11.8722 10.92 11.7987 10.9902 11.6517 11.1308L11.5983 11.1817C11.4513 11.3223 11.3778 11.3925 11.292 11.4428C11.216 11.4873 11.1331 11.5201 11.0463 11.5401C10.9485 11.5625 10.8446 11.5625 10.6367 11.5625H8.36333C8.15543 11.5625 8.05148 11.5625 7.95365 11.5401C7.86692 11.5201 7.78401 11.4873 7.70796 11.4428C7.62218 11.3925 7.54867 11.3223 7.40167 11.1817L7.34833 11.1308C7.20133 10.9902 7.12782 10.92 7.04204 10.8697C6.96599 10.8252 6.88308 10.7924 6.79635 10.7724C6.69852 10.75 6.59457 10.75 6.38667 10.75H1.85ZM1.85 10.75C1.38056 10.75 1 11.1138 1 11.5625V11.8333C1 12.3371 1 12.5889 1.05793 12.7956C1.21512 13.3564 1.67335 13.7944 2.26001 13.9446C2.47619 14 2.73968 14 3.26667 14H15.7333C16.2603 14 16.5238 14 16.74 13.9446C17.3266 13.7944 17.7849 13.3564 17.9421 12.7956C18 12.5889 18 12.3371 18 11.8333C18 11.5815 18 11.4555 17.971 11.3522C17.8924 11.0718 17.6633 10.8528 17.37 10.7777C17.2619 10.75 17.1302 10.75 16.8667 10.75H16.3" stroke="#6AC5DC" stroke-width="1.4" stroke-linecap="round" stroke-linejoin="round"/>
</svg>
