<svg width="20" height="19" viewBox="0 0 20 19" fill="none" xmlns="http://www.w3.org/2000/svg">
<path d="M10 18C14.6944 18 18.5 14.1944 18.5 9.5C18.5 4.80558 14.6944 1 10 1C5.30558 1 1.5 4.80558 1.5 9.5C1.5 14.1944 5.30558 18 10 18Z" stroke="#6AC5DC" stroke-width="1.4" stroke-miterlimit="10"/>
<path d="M18.4981 10.7693C18.4981 10.7693 8.6567 14.5829 1.5 8.73914" stroke="#6AC5DC" stroke-width="1.4" stroke-miterlimit="10"/>
<path d="M17.2842 4.98633C17.0395 4.98633 11.5904 5.39236 11.5904 11.4126C11.5904 11.4126 11.5543 14.4217 14.4363 16.6985" stroke="#6AC5DC" stroke-width="1.4" stroke-miterlimit="10"/>
<path d="M14.4379 2.32251C14.4379 2.32251 9.45362 2.73802 7.79726 8.07898C7.20719 9.98389 7.24134 12.0216 7.74793 13.9493C8.1179 15.3552 8.76489 16.9793 9.88241 17.9375" stroke="#6AC5DC" stroke-width="1.4" stroke-miterlimit="10"/>
<path d="M4.41066 3.12891C4.41066 3.12891 6.19983 8.6596 1.9707 12.0748" stroke="#6AC5DC" stroke-width="1.4" stroke-miterlimit="10"/>
</svg>
