<svg width="17" height="16" viewBox="0 0 17 16" fill="none" xmlns="http://www.w3.org/2000/svg">
<path d="M6.25 15V9.47467C6.25 9.05649 6.25 8.84741 6.33175 8.68769C6.40365 8.54719 6.51839 8.43297 6.65951 8.36138C6.81994 8.28 7.02996 8.28 7.45 8.28H9.55C9.97004 8.28 10.1801 8.28 10.3405 8.36138C10.4816 8.43297 10.5964 8.54719 10.6683 8.68769C10.75 8.84741 10.75 9.05649 10.75 9.47467V15M1 6.41333L7.78 1.35093C8.0382 1.15815 8.16729 1.06176 8.30908 1.0246C8.43423 0.9918 8.56578 0.9918 8.69093 1.0246C8.83271 1.06176 8.96181 1.15815 9.22 1.35093L16 6.41333M2.5 5.29333V12.6107C2.5 13.447 2.5 13.8652 2.66349 14.1846C2.8073 14.4656 3.03677 14.6941 3.31902 14.8372C3.63988 15 4.05992 15 4.9 15H12.1C12.9401 15 13.3601 15 13.681 14.8372C13.9632 14.6941 14.1927 14.4656 14.3365 14.1846C14.5 13.8652 14.5 13.447 14.5 12.6107V5.29333L9.94 1.88853C9.42361 1.50296 9.16542 1.31018 8.88185 1.23586C8.63155 1.17027 8.36845 1.17027 8.11815 1.23586C7.83458 1.31018 7.57639 1.50296 7.06 1.88853L2.5 5.29333Z" stroke="#6AC5DC" stroke-width="1.4" stroke-linecap="round" stroke-linejoin="round"/>
</svg>
