<svg width="17" height="18" viewBox="0 0 17 18" fill="none" xmlns="http://www.w3.org/2000/svg">
<path d="M1.16846 5.53931C1.16846 4.1549 1.16846 3.4627 1.43788 2.93392C1.67487 2.4688 2.05303 2.09064 2.51815 1.85365C3.04692 1.58423 3.73913 1.58423 5.12354 1.58423H12.0449C13.4293 1.58423 14.1215 1.58423 14.6503 1.85365C15.1154 2.09064 15.4936 2.4688 15.7306 2.93392C16 3.4627 16 4.1549 16 5.53931V12.4607C16 13.8451 16 14.5373 15.7306 15.0661C15.4936 15.5312 15.1154 15.9094 14.6503 16.1463C14.1215 16.4158 13.4293 16.4158 12.0449 16.4158H5.12353C3.73913 16.4158 3.04692 16.4158 2.51815 16.1463C2.05303 15.9094 1.67487 15.5312 1.43788 15.0661C1.16846 14.5373 1.16846 13.8451 1.16846 12.4607V5.53931Z" stroke="#6AC5DC" stroke-width="1.4" stroke-linecap="round" stroke-linejoin="round"/>
<path d="M10.0948 5.12732C10.0948 4.89658 10.0948 4.78122 10.0499 4.69309C10.0104 4.61557 9.94742 4.55254 9.8699 4.51304C9.78177 4.46814 9.6664 4.46814 9.43567 4.46814H7.73279C7.50205 4.46814 7.38669 4.46814 7.29856 4.51304C7.22104 4.55254 7.15801 4.61557 7.11851 4.69309C7.07361 4.78122 7.07361 4.89659 7.07361 5.12732V6.8302C7.07361 7.06093 7.07361 7.1763 7.0287 7.26443C6.98921 7.34195 6.92618 7.40498 6.84866 7.44448C6.76053 7.48938 6.64516 7.48938 6.41443 7.48938H4.71155C4.48081 7.48938 4.36545 7.48938 4.27732 7.53428C4.1998 7.57378 4.13677 7.63681 4.09727 7.71433C4.05237 7.80246 4.05237 7.91782 4.05237 8.14856V9.85144C4.05237 10.0822 4.05237 10.1975 4.09727 10.2857C4.13677 10.3632 4.1998 10.4262 4.27732 10.4657C4.36545 10.5106 4.48081 10.5106 4.71155 10.5106H6.41443C6.64516 10.5106 6.76053 10.5106 6.84866 10.5555C6.92618 10.595 6.98921 10.658 7.0287 10.7356C7.07361 10.8237 7.07361 10.9391 7.07361 11.1698V12.8727C7.07361 13.1034 7.07361 13.2188 7.11851 13.3069C7.15801 13.3844 7.22104 13.4475 7.29856 13.487C7.38669 13.5319 7.50205 13.5319 7.73279 13.5319H9.43567C9.6664 13.5319 9.78177 13.5319 9.8699 13.487C9.94742 13.4475 10.0104 13.3844 10.0499 13.3069C10.0948 13.2188 10.0948 13.1034 10.0948 12.8727V11.1698C10.0948 10.9391 10.0948 10.8237 10.1398 10.7356C10.1793 10.658 10.2423 10.595 10.3198 10.5555C10.4079 10.5106 10.5233 10.5106 10.754 10.5106H12.4569C12.6876 10.5106 12.803 10.5106 12.8911 10.4657C12.9687 10.4262 13.0317 10.3632 13.0712 10.2857C13.1161 10.1975 13.1161 10.0822 13.1161 9.85144V8.14856C13.1161 7.91783 13.1161 7.80246 13.0712 7.71433C13.0317 7.63681 12.9687 7.57378 12.8911 7.53428C12.803 7.48938 12.6876 7.48938 12.4569 7.48938H10.754C10.5233 7.48938 10.4079 7.48938 10.3198 7.44448C10.2423 7.40498 10.1793 7.34195 10.1398 7.26443C10.0948 7.1763 10.0948 7.06093 10.0948 6.8302V5.12732Z" stroke="#6AC5DC" stroke-width="1.4" stroke-linecap="round" stroke-linejoin="round"/>
</svg>
