<svg width="18" height="16" viewBox="0 0 18 16" fill="none" xmlns="http://www.w3.org/2000/svg">
<path d="M16.6903 15V13.4444C16.6903 11.9948 15.6988 10.7767 14.357 10.4313M11.6348 1.22615C12.7749 1.68767 13.5792 2.80546 13.5792 4.11111C13.5792 5.41676 12.7749 6.53455 11.6348 6.99608M12.8014 15C12.8014 13.5504 12.8014 12.8256 12.5646 12.2539C12.2489 11.4916 11.6432 10.8859 10.8809 10.5702C10.3092 10.3333 9.58436 10.3333 8.13477 10.3333H5.80143C4.35184 10.3333 3.62704 10.3333 3.05531 10.5702C2.293 10.8859 1.68734 11.4916 1.37158 12.2539C1.13477 12.8256 1.13477 13.5504 1.13477 15M10.0792 4.11111C10.0792 5.82933 8.68632 7.22222 6.9681 7.22222C5.24988 7.22222 3.85699 5.82933 3.85699 4.11111C3.85699 2.39289 5.24988 1 6.9681 1C8.68632 1 10.0792 2.39289 10.0792 4.11111Z" stroke="#6AC5DC" stroke-width="1.4" stroke-linecap="round" stroke-linejoin="round"/>
</svg>
