<svg width="17" height="19" viewBox="0 0 17 19" fill="none" xmlns="http://www.w3.org/2000/svg">
<path d="M15.5833 5.42746L8.49997 9.49997M8.49997 9.49997L1.41664 5.42746M8.49997 9.49997L8.5 17.6929M16 13.0002V5.99984C16 5.70434 16 5.55659 15.9579 5.42481C15.9207 5.30824 15.8599 5.20123 15.7795 5.11094C15.6886 5.00888 15.5638 4.93713 15.3142 4.79362L9.14753 1.24814C8.91119 1.11226 8.79302 1.04432 8.66788 1.01768C8.55712 0.994106 8.44288 0.994106 8.33212 1.01768C8.20698 1.04432 8.08881 1.11226 7.85248 1.24814L1.68581 4.79362C1.43621 4.93713 1.3114 5.00889 1.22053 5.11094C1.14013 5.20123 1.07929 5.30824 1.04207 5.42482C1 5.55659 1 5.70434 1 5.99984V13.0002C1 13.2957 1 13.4434 1.04207 13.5752C1.07929 13.6918 1.14013 13.7988 1.22053 13.8891C1.3114 13.9911 1.43621 14.0629 1.68581 14.2064L7.85248 17.7519C8.08881 17.8877 8.20698 17.9557 8.33212 17.9823C8.44288 18.0059 8.55712 18.0059 8.66788 17.9823C8.79302 17.9557 8.91119 17.8877 9.14752 17.7519L15.3142 14.2064C15.5638 14.0629 15.6886 13.9911 15.7795 13.8891C15.8599 13.7988 15.9207 13.6918 15.9579 13.5752C16 13.4434 16 13.2957 16 13.0002Z" stroke="#6AC5DC" stroke-width="1.4" stroke-linecap="round" stroke-linejoin="round"/>
</svg>
