<svg width="18" height="16" viewBox="0 0 18 16" fill="none" xmlns="http://www.w3.org/2000/svg">
<path d="M5.27778 7.22222H3.02222C2.58663 7.22222 2.36883 7.22222 2.20245 7.30699C2.0561 7.38156 1.93712 7.50055 1.86255 7.6469C1.77778 7.81327 1.77778 8.03107 1.77778 8.46667V15M12.2778 7.22222H14.5333C14.9689 7.22222 15.1867 7.22222 15.3531 7.30699C15.4995 7.38156 15.6184 7.50055 15.693 7.6469C15.7778 7.81327 15.7778 8.03107 15.7778 8.46667V15M12.2778 15V3.48889C12.2778 2.6177 12.2778 2.1821 12.1082 1.84935C11.9591 1.55665 11.7211 1.31868 11.4284 1.16955C11.0957 1 10.6601 1 9.78889 1H7.76667C6.89547 1 6.45988 1 6.12713 1.16955C5.83443 1.31868 5.59646 1.55665 5.44732 1.84935C5.27778 2.1821 5.27778 2.6177 5.27778 3.48889V15M16.5556 15H1M8 4.11111H9.55556M8 7.22222H9.55556M8 10.3333H9.55556" stroke="#6AC5DC" stroke-width="1.4" stroke-linecap="round" stroke-linejoin="round"/>
</svg>
