<svg width="18" height="16" viewBox="0 0 18 16" fill="none" xmlns="http://www.w3.org/2000/svg">
<path d="M5.8 15V4.11111C5.8 3.3878 5.8 3.02614 5.88178 2.72942C6.1037 1.92421 6.75061 1.29526 7.57883 1.07951C7.88403 1 8.25602 1 9 1C9.74398 1 10.116 1 10.4212 1.07951C11.2494 1.29526 11.8963 1.92421 12.1182 2.72942C12.2 3.02614 12.2 3.3878 12.2 4.11111V15M3.56 15H14.44C15.3361 15 15.7841 15 16.1264 14.8305C16.4274 14.6813 16.6722 14.4433 16.8256 14.1507C17 13.8179 17 13.3823 17 12.5111V6.6C17 5.72881 17 5.29321 16.8256 4.96046C16.6722 4.66776 16.4274 4.42979 16.1264 4.28066C15.7841 4.11111 15.3361 4.11111 14.44 4.11111H3.56C2.66392 4.11111 2.21587 4.11111 1.87362 4.28066C1.57256 4.42979 1.32779 4.66776 1.17439 4.96046C1 5.29321 1 5.72881 1 6.6V12.5111C1 13.3823 1 13.8179 1.17439 14.1507C1.32779 14.4433 1.57256 14.6813 1.87362 14.8305C2.21587 15 2.66392 15 3.56 15Z" stroke="#6AC5DC" stroke-width="1.4" stroke-linecap="round" stroke-linejoin="round"/>
</svg>
