<?xml version="1.0" encoding="UTF-8"?>
<svg id="Sample" xmlns="http://www.w3.org/2000/svg" version="1.1" viewBox="0 0 283.46 127.56">
  <defs>
    <style>
      .cls-1 {
        fill: #b71923;
      }

      .cls-1, .cls-2, .cls-3 {
        stroke-width: 0px;
      }

      .cls-2 {
        fill: #1d1d1b;
      }

      .cls-4 {
        stroke: #b71923;
        stroke-miterlimit: 10;
        stroke-width: 3px;
      }

      .cls-4, .cls-3 {
        fill: #fff;
      }

      .cls-3 {
        fill-rule: evenodd;
      }
    </style>
  </defs>
  <rect class="cls-4" x="14.17" y="14.17" width="255.12" height="99.21"/>
  <rect class="cls-1" x="-18.46" y="46.98" width="99.21" height="33.61" transform="translate(-32.63 94.92) rotate(-90)"/>
  <path class="cls-3" d="M27,97.41h8.87c.84,0,1.25-.25,1.25-1.32v-1.28c0-1.46-.56-2.14-1.63-2.65l-1.03-.47.21-.74,3.39.58v10.41h-.74c-.39-1.83-.45-1.93-1.17-1.93h-9.14c-.74,0-.78.1-1.15,1.93h-.74v-6.52h.74c.37,1.89.41,1.98,1.15,1.98h0ZM30.93,82.81c1.19,0,2.57.68,2.78,5.19,1.83-.12,3.04-1.05,3.04-2.63,0-.88-.35-1.67-1.03-2.39l.49-.41c1.21.82,2.04,2.16,2.04,3.72,0,2.51-1.81,4.34-4.63,4.34s-4.9-2.22-4.9-4.83c0-2.14,1.3-3,2.22-3h0ZM29.49,85.93c0,1.42,1.52,2.04,3.46,2.1-.47-3.09-1.65-3.21-2.33-3.21-.8,0-1.13.64-1.13,1.11h0ZM38.25,78.92c0,2.26-.91,3.09-1.85,3.09-.72,0-1.36-.72-1.17-1.63l.31-.25c1.01.58,1.93.16,1.93-1.32,0-.93-.51-1.6-1.28-1.6-.91,0-1.28.76-1.75,1.93-.66,1.65-1.42,2.63-2.94,2.63s-2.78-1.32-2.78-3.33c0-2.14,1.01-3.09,1.89-3.09.7,0,1.38.62,1.15,1.71l-.31.21c-.9-.66-1.95-.33-1.95,1.13,0,.88.54,1.46,1.26,1.46.86,0,1.26-.91,1.63-1.96.56-1.63,1.32-2.98,3-2.98s2.86,1.21,2.86,4.01h0ZM25.11,72.95v-10.39l3.4-.1v.7l-1.07.35c-1.07.35-1.4,1.11-1.4,2.2v2.7h4.83v-2.67c0-.56-.1-.6-1.77-.99v-.74h4.67v.74c-1.61.39-1.85.43-1.85.99v2.67h3.95c.84,0,1.25-.25,1.25-1.32v-1.28c0-1.46-.56-2.14-1.63-2.65l-1.03-.47.21-.74,3.39.58v10.41h-.74c-.39-1.83-.45-1.93-1.17-1.93h-9.14c-.74,0-.78.1-1.15,1.93h-.74ZM35.72,53.96l.49-.41c1.21.82,2.04,2.16,2.04,3.72,0,2.51-1.81,4.34-4.63,4.34s-4.9-2.02-4.9-4.67c0-2.08,1.13-3.02,2.02-3.02.74,0,1.5.47,1.26,1.81l-.33.21c-.88-.35-2.2-.51-2.2.95s1.71,2.1,3.79,2.1,3.48-.97,3.48-2.65c0-.88-.35-1.67-1.03-2.39h0ZM37,47.15h-5.02c-1.05,0-1.52.39-1.52,1.15,0,1.17,1.83,2.16,4.59,2.16h3v2.45h-12.12c-.72,0-.76.06-1.15,1.25h-.74v-3.79c.78.1,6.85.1,7.26.1v-.04c-1.54-.62-2.59-1.75-2.59-3.33,0-1.4.95-2.39,2.8-2.39h4.55c.86,0,.93-.14,1.25-1.44h.74c.12,1.11.19,1.98.19,2.53,0,.89-.39,1.36-1.25,1.36h0ZM37.47,38.84c0-1.63-1.91-2.08-3.85-2.08-2.12,0-4.12.31-4.12,2.08,0,1.63,1.91,2.08,3.85,2.08,2.12,0,4.12-.35,4.12-2.08h0ZM38.25,39.03c0,2.65-1.75,4.49-4.47,4.49-3.04,0-5.06-1.91-5.06-4.88,0-2.65,1.75-4.49,4.47-4.49,3.04,0,5.06,1.91,5.06,4.88h0ZM38.25,30.59c0,2.26-.91,3.09-1.85,3.09-.72,0-1.36-.72-1.17-1.63l.31-.25c1.01.58,1.93.16,1.93-1.32,0-.93-.51-1.6-1.28-1.6-.91,0-1.28.76-1.75,1.93-.66,1.65-1.42,2.63-2.94,2.63s-2.78-1.32-2.78-3.33c0-2.14,1.01-3.09,1.89-3.09.7,0,1.38.62,1.15,1.71l-.31.21c-.9-.66-1.95-.33-1.95,1.13,0,.88.54,1.46,1.26,1.46.86,0,1.26-.91,1.63-1.97.56-1.63,1.32-2.98,3-2.98s2.86,1.21,2.86,4.01h0Z"/>
  <g>
    <g>
      <path class="cls-2" d="M130.31,96.47c-.1-.52-.34-.8-.77-.8-.35,0-.59.18-.59.52,0,1.01,2.52,1.41,2.52,3.33,0,1.15-.79,1.74-1.88,1.74-1.17,0-1.85-.67-2.05-1.8l1.17-.32c.08.54.28,1.02.89,1.02.35,0,.6-.2.6-.56,0-1.11-2.52-1.53-2.52-3.3,0-1.02.79-1.73,1.8-1.73s1.76.71,1.97,1.71l-1.14.19Z"/>
      <path class="cls-2" d="M132,95.79v-1.1h.74v-1.74h1.34v1.74h.9v1.1h-.9v3.72c0,.34.14.53.46.53h.44v1.15c-.18.05-.34.07-.67.07-1.01,0-1.57-.47-1.57-1.45v-4.02h-.74Z"/>
      <path class="cls-2" d="M135.71,96.58c.07-1.31.9-2.01,2.16-2.01s1.95.58,1.95,1.75v4.14c0,.2.05.47.08.68h-1.28c-.01-.18-.06-.35-.07-.5-.5.41-.92.62-1.57.62-.91,0-1.37-.62-1.37-1.45,0-1.41.93-2.19,2.86-2.92v-.38c0-.54-.22-.83-.66-.83-.61,0-.74.36-.77.91h-1.34ZM138.48,97.87c-1.22.7-1.52,1.14-1.52,1.7,0,.42.22.59.62.59.37,0,.67-.28.9-.6v-1.69Z"/>
      <path class="cls-2" d="M140.65,95.79v-1.1h.74v-1.74h1.34v1.74h.9v1.1h-.9v3.72c0,.34.14.53.46.53h.44v1.15c-.18.05-.34.07-.67.07-1.01,0-1.57-.47-1.57-1.45v-4.02h-.74Z"/>
      <path class="cls-2" d="M144.52,94.16v-1.22h1.34v1.22h-1.34ZM144.52,101.14v-6.45h1.34v6.45h-1.34Z"/>
      <path class="cls-2" d="M149.62,96.47c-.1-.52-.34-.8-.77-.8-.35,0-.59.18-.59.52,0,1.01,2.52,1.41,2.52,3.33,0,1.15-.79,1.74-1.88,1.74-1.17,0-1.85-.67-2.05-1.8l1.17-.32c.08.54.28,1.02.89,1.02.35,0,.6-.2.6-.56,0-1.11-2.52-1.53-2.52-3.3,0-1.02.79-1.73,1.8-1.73s1.76.71,1.97,1.71l-1.14.19Z"/>
      <path class="cls-2" d="M151.31,95.79v-1.1h.74v-1.74h1.34v1.74h.9v1.1h-.9v3.72c0,.34.14.53.46.53h.44v1.15c-.18.05-.34.07-.67.07-1.01,0-1.57-.47-1.57-1.45v-4.02h-.74Z"/>
      <path class="cls-2" d="M155.02,96.58c.07-1.31.9-2.01,2.16-2.01s1.95.58,1.95,1.75v4.14c0,.2.05.47.08.68h-1.28c-.01-.18-.06-.35-.07-.5-.5.41-.92.62-1.57.62-.91,0-1.37-.62-1.37-1.45,0-1.41.93-2.19,2.87-2.92v-.38c0-.54-.22-.83-.66-.83-.61,0-.74.36-.77.91h-1.34ZM157.79,97.87c-1.22.7-1.52,1.14-1.52,1.7,0,.42.22.59.62.59.37,0,.67-.28.9-.6v-1.69Z"/>
    </g>
    <path class="cls-2" d="M169.77,92.94h-7.73c-.16,0-.29.13-.29.29v5.27s.03,0,.04,0c0,0,1.25-.03,1.79-.3.66-.34,1.16-1.06,1.16-1.06.13-.18.26-.38.31-.44.04-.06.09-.13.1-.14.01-.01.06-.09.09-.13.03-.04.16-.23.28-.41,0,0,.75-1.09,1.82-1.64,1.16-.6,2.69-.54,2.69-.54,0,0,.02,0,.02,0v-.6c0-.16-.13-.29-.29-.29ZM168.19,96.01c-.66.34-1.16,1.06-1.16,1.06-.13.18-.26.38-.31.44-.04.06-.09.13-.1.14-.01.01-.06.09-.09.13-.03.04-.16.23-.28.41,0,0-.75,1.09-1.82,1.64-1.11.58-2.56.54-2.68.54v.6c0,.16.13.29.29.29h7.73c.16,0,.29-.13.29-.29v-5.27s-.05,0-.08,0c0,0-1.25.02-1.79.3Z"/>
  </g>
  <g>
    <path class="cls-2" d="M62.65,101.23c-.09,0-.18-.08-.18-.18v-5.17c0-.09.09-.17.18-.17h2.26c.1,0,.18.08.18.17v.4c0,.1-.08.18-.18.18h-1.63v1.59h1.36c.1,0,.18.08.18.18v.4c0,.09-.08.17-.18.17h-1.36v1.66h1.67c.1,0,.18.08.18.17v.4c0,.1-.08.18-.18.18h-2.3Z"/>
    <path class="cls-2" d="M67.42,97.33c.6,0,1.06.39,1.06,1.08v2.64c0,.1-.08.18-.18.18h-.43c-.1,0-.18-.08-.18-.18v-2.55c0-.3-.17-.49-.46-.49h-.22c-.3,0-.47.2-.47.49v2.55c0,.1-.08.18-.18.18h-.43c-.1,0-.18-.08-.18-.18v-3.54c0-.1.08-.18.18-.18h.43c.1,0,.18.08.18.18v.13c.18-.21.47-.31.76-.31h.11Z"/>
    <path class="cls-2" d="M73.29,100.13c0,.73-.5,1.1-1.17,1.1h-.39c-.67,0-1.17-.38-1.17-1.1v-1.7c0-.72.5-1.1,1.17-1.1h.39c.66,0,1.17.39,1.17,1.1v.28c0,.1-.08.18-.18.18h-.43c-.09,0-.18-.08-.18-.18v-.2c0-.3-.17-.49-.46-.49h-.23c-.3,0-.46.19-.46.49v1.55c0,.3.16.49.46.49h.23c.3,0,.46-.19.46-.49v-.28c0-.1.09-.18.18-.18h.43c.1,0,.18.08.18.18v.35Z"/>
    <path class="cls-2" d="M74.98,101.23c-.59,0-1.06-.45-1.06-1.1v-1.7c0-.65.47-1.1,1.06-1.1h.59c.59,0,1.07.46,1.07,1.1v1.7c0,.65-.47,1.1-1.07,1.1h-.59ZM75.84,98.5c0-.3-.16-.49-.46-.49h-.23c-.3,0-.46.19-.46.49v1.55c0,.3.16.49.46.49h.23c.3,0,.46-.19.46-.49v-1.55Z"/>
    <path class="cls-2" d="M78.2,101.05c0,.1-.08.18-.18.18h-.43c-.1,0-.18-.08-.18-.18v-5.16c0-.1.08-.18.18-.18h.43c.1,0,.18.08.18.18v5.16Z"/>
    <path class="cls-2" d="M79.86,101.05c0,.1-.08.18-.18.18h-.43c-.1,0-.18-.08-.18-.18v-5.16c0-.1.08-.18.18-.18h.43c.1,0,.18.08.18.18v5.16Z"/>
    <path class="cls-2" d="M83.3,101.05c0,.1-.08.18-.18.18h-.43c-.1,0-.18-.08-.18-.18v-.13c-.14.17-.33.31-.75.31h-.18c-.59,0-1.03-.39-1.03-1.03v-.14c0-.64.38-1.04,1.08-1.04h.88v-.51c0-.3-.17-.49-.46-.49h-.15c-.3,0-.47.18-.47.47v.06c0,.1-.09.18-.18.18h-.42c-.1,0-.18-.08-.18-.18v-.13c0-.71.52-1.09,1.18-1.09h.32c.65,0,1.15.4,1.15,1.1v2.62ZM82.06,100.58c.3,0,.46-.19.46-.49v-.47h-.73c-.3,0-.44.15-.44.4v.12c0,.26.11.43.44.43h.27Z"/>
    <path class="cls-2" d="M84.87,97.65c.17-.19.43-.32.77-.32h.09c.76,0,1.08.54,1.08,1.26v1.54c0,.68-.43,1.1-1.1,1.1h-.08c-.34,0-.61-.09-.77-.31v.13c0,.1-.08.18-.18.18h-.43c-.1,0-.18-.08-.18-.18v-5.16c0-.1.08-.18.18-.18h.43c.1,0,.18.08.18.18v1.76ZM85.32,100.55h.24c.3,0,.46-.19.46-.52v-1.52c0-.3-.16-.49-.46-.49h-.24c-.3,0-.46.19-.46.49v1.55c0,.31.16.5.46.5Z"/>
    <path class="cls-2" d="M88.55,101.23c-.59,0-1.06-.45-1.06-1.1v-1.7c0-.65.47-1.1,1.06-1.1h.59c.59,0,1.07.46,1.07,1.1v1.7c0,.65-.47,1.1-1.07,1.1h-.59ZM89.42,98.5c0-.3-.16-.49-.46-.49h-.23c-.3,0-.46.19-.46.49v1.55c0,.3.16.49.46.49h.23c.3,0,.46-.19.46-.49v-1.55Z"/>
    <path class="cls-2" d="M92.44,98.16c-.55,0-.72.3-.72.71v2.18c0,.1-.08.18-.18.18h-.43c-.1,0-.18-.08-.18-.18v-3.54c0-.1.08-.18.18-.18h.42c.1,0,.18.08.18.18v.26c.18-.32.48-.44.8-.44h.2c.1,0,.18.09.18.18v.47c0,.1-.08.18-.18.18h-.28Z"/>
    <path class="cls-2" d="M96.07,101.05c0,.1-.08.18-.18.18h-.43c-.1,0-.18-.08-.18-.18v-.13c-.14.17-.33.31-.75.31h-.18c-.59,0-1.03-.39-1.03-1.03v-.14c0-.64.38-1.04,1.08-1.04h.88v-.51c0-.3-.17-.49-.46-.49h-.15c-.3,0-.47.18-.47.47v.06c0,.1-.09.18-.18.18h-.42c-.1,0-.18-.08-.18-.18v-.13c0-.71.52-1.09,1.18-1.09h.32c.65,0,1.15.4,1.15,1.1v2.62ZM94.82,100.58c.3,0,.46-.19.46-.49v-.47h-.73c-.3,0-.44.15-.44.4v.12c0,.26.11.43.44.43h.27Z"/>
    <path class="cls-2" d="M97.92,98.02v2.27c0,.17.09.26.31.26.24,0,.32-.05.46-.05.08,0,.13.06.13.16v.29c0,.14-.06.31-.75.31s-.95-.33-.95-.88v-2.36h-.4c-.1,0-.18-.08-.18-.18v-.33c0-.09.08-.17.18-.17h.4v-.96c0-.1.08-.18.18-.18h.43c.1,0,.18.08.18.18v.96h.75c.1,0,.18.08.18.17v.33c0,.1-.08.18-.18.18h-.75Z"/>
    <path class="cls-2" d="M100.23,96.56c0,.15-.12.18-.25.18h-.36c-.13,0-.25-.03-.25-.18v-.63c0-.14.13-.18.25-.18h.36c.13,0,.25.04.25.18v.63ZM100.19,101.05c0,.1-.08.18-.18.18h-.43c-.1,0-.18-.08-.18-.18v-3.54c0-.1.08-.18.18-.18h.43c.1,0,.18.08.18.18v3.54Z"/>
    <path class="cls-2" d="M101.99,101.23c-.59,0-1.07-.45-1.07-1.1v-1.7c0-.65.47-1.1,1.07-1.1h.59c.59,0,1.07.46,1.07,1.1v1.7c0,.65-.47,1.1-1.07,1.1h-.59ZM102.85,98.5c0-.3-.16-.49-.46-.49h-.23c-.3,0-.46.19-.46.49v1.55c0,.3.16.49.46.49h.23c.3,0,.46-.19.46-.49v-1.55Z"/>
    <path class="cls-2" d="M106.03,97.33c.6,0,1.06.39,1.06,1.08v2.64c0,.1-.08.18-.18.18h-.43c-.1,0-.18-.08-.18-.18v-2.55c0-.3-.17-.49-.46-.49h-.22c-.3,0-.47.2-.47.49v2.55c0,.1-.08.18-.18.18h-.43c-.1,0-.18-.08-.18-.18v-3.54c0-.1.08-.18.18-.18h.43c.1,0,.18.08.18.18v.13c.18-.21.47-.31.76-.31h.11Z"/>
    <path class="cls-2" d="M111.84,101.05c0,.1-.08.18-.18.18h-.43c-.1,0-.18-.08-.18-.18v-.13c-.14.17-.33.31-.75.31h-.18c-.59,0-1.03-.39-1.03-1.03v-.14c0-.64.38-1.04,1.08-1.04h.88v-.51c0-.3-.17-.49-.46-.49h-.15c-.3,0-.47.18-.47.47v.06c0,.1-.09.18-.18.18h-.42c-.1,0-.18-.08-.18-.18v-.13c0-.71.52-1.09,1.18-1.09h.32c.65,0,1.15.4,1.15,1.1v2.62ZM110.59,100.58c.3,0,.46-.19.46-.49v-.47h-.73c-.3,0-.44.15-.44.4v.12c0,.26.11.43.44.43h.27Z"/>
    <path class="cls-2" d="M113.77,100.28s.02.05.05.05c.03,0,.04-.02.05-.05l.61-2.79c.02-.1.09-.16.2-.16h.42c.15,0,.2.09.2.18,0,.04,0,.09-.02.15l-.85,3.39c-.02.1-.1.18-.22.18h-.79c-.12,0-.2-.08-.22-.18l-.83-3.4c-.02-.06-.02-.11-.02-.15,0-.09.06-.17.2-.17h.44c.1,0,.17.05.2.16.2.93.4,1.86.6,2.79Z"/>
    <path class="cls-2" d="M117.71,100c0-.1.09-.18.18-.18h.43c.1,0,.18.08.18.18v.13c0,.76-.53,1.1-1.21,1.1h-.31c-.69,0-1.2-.35-1.2-1.1v-1.7c0-.65.47-1.1,1.06-1.1h.59c.59,0,1.07.46,1.07,1.1v.83c0,.1-.08.18-.18.18h-1.75v.62c0,.3.16.49.46.49h.23c.3,0,.46-.19.46-.49v-.06ZM116.56,98.78h1.14v-.28c0-.3-.16-.49-.46-.49h-.23c-.3,0-.46.19-.46.49v.28Z"/>
    <path class="cls-2" d="M121.87,100.13c0,.73-.5,1.1-1.17,1.1h-.39c-.67,0-1.17-.38-1.17-1.1v-1.7c0-.72.5-1.1,1.17-1.1h.39c.66,0,1.17.39,1.17,1.1v.28c0,.1-.08.18-.18.18h-.43c-.09,0-.18-.08-.18-.18v-.2c0-.3-.17-.49-.46-.49h-.23c-.3,0-.46.19-.46.49v1.55c0,.3.16.49.46.49h.23c.3,0,.46-.19.46-.49v-.28c0-.1.09-.18.18-.18h.43c.1,0,.18.08.18.18v.35Z"/>
  </g>
  <g>
    <path class="cls-2" d="M62.36,26.99c0-.47.36-.83.83-.83h3.13c.47,0,.83.36.83.83v19.87h6.55c.47,0,.83.36.83.83v2.88c0,.43-.36.79-.83.79h-10.51c-.43,0-.83-.36-.83-.79v-23.58Z"/>
    <path class="cls-2" d="M77.8,51.36c-.43,0-.83-.36-.83-.83v-23.58c0-.43.4-.79.83-.79h11.41c.47,0,.83.36.83.79v2.88c0,.47-.36.83-.83.83h-7.45v5.83h6.01c.47,0,.83.36.83.83v2.88c0,.43-.36.79-.83.79h-6.01v5.87h7.45c.47,0,.83.36.83.79v2.88c0,.47-.36.83-.83.83h-11.41Z"/>
    <path class="cls-2" d="M97.17,33.47c0,.83.22,1.22.79,1.58l5.58,3.31c1.91,1.12,2.66,2.2,2.66,4.57v3.64c0,2.63-2.16,4.79-4.79,4.79h-4.25c-2.63,0-4.79-2.16-4.79-4.79v-3.31c0-.47.36-.83.83-.83h3.13c.43,0,.83.36.83.83v2.02c0,1.01.58,1.58,1.58,1.58h1.08c1.01,0,1.58-.58,1.58-1.58v-1.01c0-1.22-.36-1.62-1.15-2.09l-5.4-3.17c-1.76-1.04-2.48-2.63-2.48-4.75v-3.31c0-2.63,2.16-4.79,4.79-4.79h4.25c2.63,0,4.79,2.16,4.79,4.79v3.31c0,.47-.36.83-.83.83h-3.13c-.43,0-.83-.36-.83-.83v-2.02c0-1.01-.58-1.58-1.58-1.58h-1.08c-1.01,0-1.58.58-1.58,1.58v1.22Z"/>
    <path class="cls-2" d="M122.26,43.26c0-.47.4-.83.83-.83h3.13c.47,0,.83.36.83.83v3.31c0,2.63-2.16,4.79-4.79,4.79h-4.25c-2.63,0-4.79-2.16-4.79-4.79v-15.62c0-2.63,2.16-4.79,4.79-4.79h4.25c2.63,0,4.79,2.16,4.79,4.79v3.31c0,.47-.36.83-.83.83h-3.13c-.43,0-.83-.36-.83-.83v-2.02c0-1.01-.58-1.58-1.58-1.58h-1.08c-1.01,0-1.58.58-1.58,1.58v13.03c0,1.01.58,1.58,1.58,1.58h1.08c1.01,0,1.58-.58,1.58-1.58v-2.02Z"/>
    <path class="cls-2" d="M143.68,50.53c0,.47-.36.83-.83.83h-3.13c-.47,0-.83-.36-.83-.83v-9.54h-4.25v9.54c0,.47-.36.83-.83.83h-3.13c-.47,0-.83-.36-.83-.83v-23.54c0-.47.36-.83.83-.83h3.13c.47,0,.83.36.83.83v9.5h4.25v-9.5c0-.47.36-.83.83-.83h3.13c.47,0,.83.36.83.83v23.54Z"/>
    <path class="cls-2" d="M154.84,45.49h-3.53l-.43,5.04c-.04.47-.36.83-.83.83h-3.17c-.43,0-.72-.32-.72-.72,0-.14.04-.47.07-.83l2.48-22.89c.04-.47.4-.76.86-.76h7.27c.43,0,.79.29.83.76l2.48,22.89c.04.36.07.68.07.83,0,.4-.29.72-.72.72h-3.38c-.5,0-.83-.36-.86-.83l-.43-5.04ZM151.71,40.99h2.74l-.9-9.97c-.04-.4-.14-.58-.43-.58-.32,0-.4.22-.43.58l-.97,9.97Z"/>
    <path class="cls-2" d="M167.51,50.53c0,.47-.36.83-.83.83h-3.13c-.47,0-.83-.36-.83-.83v-23.58c0-.43.4-.79.83-.79h3.28c.65,0,.9.36,1.04.79l2.92,9.18,2.92-9.18c.14-.43.4-.79,1.04-.79h3.28c.43,0,.83.36.83.79v23.58c0,.47-.36.83-.83.83h-3.13c-.47,0-.83-.36-.83-.83v-13.46l-1.62,4.64c-.07.29-.29.5-.65.5h-2.02c-.36,0-.58-.22-.65-.5l-1.62-4.64v13.46Z"/>
    <path class="cls-2" d="M186.95,50.53c0,.47-.36.83-.83.83h-3.13c-.43,0-.83-.36-.83-.83v-23.58c0-.47.4-.79.83-.79h7.85c2.63,0,4.79,2.16,4.79,4.79v6.34c0,2.63-2.16,4.79-4.79,4.79h-3.89v8.46ZM189.25,37.58c1.01,0,1.58-.58,1.58-1.58v-3.74c0-1.01-.58-1.58-1.58-1.58h-2.3v6.91h2.3Z"/>
    <path class="cls-2" d="M203.15,50.53c0,.47-.36.83-.83.83h-3.13c-.47,0-.83-.36-.83-.83v-23.54c0-.47.36-.83.83-.83h3.13c.47,0,.83.36.83.83v23.54Z"/>
    <path class="cls-2" d="M211.11,51.36c-2.63,0-4.79-2.16-4.79-4.79v-15.62c0-2.63,2.16-4.79,4.79-4.79h4.25c2.63,0,4.79,2.16,4.79,4.79v15.62c0,2.63-2.16,4.79-4.79,4.79h-4.25ZM213.77,46.86c1.01,0,1.58-.58,1.58-1.58v-13.03c0-1.01-.58-1.58-1.58-1.58h-1.08c-1.01,0-1.58.58-1.58,1.58v13.03c0,1.01.58,1.58,1.58,1.58h1.08Z"/>
    <path class="cls-2" d="M223.31,26.99c0-.43.4-.83.83-.83h3.24c.5,0,.9.22,1.08.83l4.03,12.92v-12.92c0-.43.36-.83.83-.83h2.99c.47,0,.83.4.83.83v23.54c0,.47-.36.83-.83.83h-2.88c-.58,0-.9-.25-1.12-.86l-4.36-13.1v13.14c0,.47-.36.83-.83.83h-2.99c-.47,0-.83-.36-.83-.83v-23.54Z"/>
    <path class="cls-2" d="M244.87,33.47c0,.83.22,1.22.79,1.58l5.58,3.31c1.91,1.12,2.66,2.2,2.66,4.57v3.64c0,2.63-2.16,4.79-4.79,4.79h-4.25c-2.63,0-4.79-2.16-4.79-4.79v-3.31c0-.47.36-.83.83-.83h3.13c.43,0,.83.36.83.83v2.02c0,1.01.58,1.58,1.58,1.58h1.08c1.01,0,1.58-.58,1.58-1.58v-1.01c0-1.22-.36-1.62-1.15-2.09l-5.4-3.17c-1.76-1.04-2.48-2.63-2.48-4.75v-3.31c0-2.63,2.16-4.79,4.79-4.79h4.25c2.63,0,4.79,2.16,4.79,4.79v3.31c0,.47-.36.83-.83.83h-3.13c-.43,0-.83-.36-.83-.83v-2.02c0-1.01-.58-1.58-1.58-1.58h-1.08c-1.01,0-1.58.58-1.58,1.58v1.22Z"/>
    <path class="cls-2" d="M62.3,76.56c-.25,0-.48-.21-.48-.48v-13.75c0-.27.23-.46.48-.46h4.12c1.64,0,2.94,1.2,2.94,2.94v8.82c0,1.74-1.3,2.94-2.94,2.94h-4.12ZM65.97,74.55c.8,0,1.22-.55,1.22-1.34v-7.98c0-.8-.42-1.34-1.22-1.34h-1.99v10.67h1.99Z"/>
    <path class="cls-2" d="M71.96,76.56c-.25,0-.48-.21-.48-.48v-13.75c0-.25.23-.46.48-.46h6.03c.27,0,.48.21.48.46v1.07c0,.27-.21.48-.48.48h-4.35v4.24h3.61c.27,0,.48.21.48.48v1.07c0,.25-.21.46-.48.46h-3.61v4.41h4.45c.27,0,.48.21.48.46v1.07c0,.27-.21.48-.48.48h-6.13Z"/>
    <path class="cls-2" d="M83.84,62.35c0-.27.21-.48.48-.48h1.2c.27,0,.48.21.48.48v12.2h4.16c.27,0,.48.21.48.48v1.07c0,.25-.21.46-.48.46h-5.84c-.25,0-.48-.21-.48-.46v-13.75Z"/>
    <path class="cls-2" d="M96.63,72.78h-2.58l-.46,3.34c-.04.29-.23.44-.5.44h-1.2c-.25,0-.42-.17-.42-.42,0-.08.02-.29.06-.5l1.99-13.29c.04-.34.23-.48.5-.48h2.77c.27,0,.46.15.5.48l1.99,13.29c.04.27.06.42.06.5,0,.25-.19.42-.44.42h-1.36c-.29,0-.44-.17-.48-.44l-.44-3.34ZM94.3,70.81h2.1l-.99-7.1h-.08l-1.03,7.1Z"/>
    <path class="cls-2" d="M109.75,65.22c0-.86-.5-1.34-1.28-1.34h-.65c-.78,0-1.28.48-1.28,1.34v7.98c0,.86.5,1.34,1.28,1.34h.65c.78,0,1.28-.48,1.28-1.34v-1.47c0-.27.23-.48.48-.48h1.2c.27,0,.48.21.48.48v1.91c0,1.97-1.49,2.92-3.25,2.92h-1.05c-1.76,0-3.23-.94-3.23-2.92v-8.86c0-1.95,1.47-2.92,3.23-2.92h1.05c1.76,0,3.25.97,3.25,2.92v1.7c0,.27-.21.48-.48.48h-1.2c-.25,0-.48-.21-.48-.48v-1.26Z"/>
    <path class="cls-2" d="M115.99,76.08c0,.27-.21.48-.48.48h-1.2c-.25,0-.48-.21-.48-.48v-13.75c0-.27.23-.46.48-.46h4.12c1.64,0,2.94,1.2,2.94,2.94v1.87c0,1.15-.5,2.06-1.62,2.46,1.2.46,1.62,1.47,1.62,2.41v3.74c0,.36.1.76.1.92,0,.21-.17.36-.44.36h-.97c-.46,0-.86-.21-.86-1.07v-3.97c0-.82-.57-1.39-1.43-1.39h-1.78v5.94ZM117.94,68.14c.8,0,1.26-.55,1.26-1.34v-1.57c0-.8-.46-1.36-1.26-1.36h-1.95v4.28h1.95Z"/>
    <path class="cls-2" d="M130.99,73.64c0,1.97-1.47,2.92-3.23,2.92h-1.07c-1.76,0-3.23-.94-3.23-2.92v-8.86c0-1.95,1.47-2.92,3.23-2.92h1.07c1.76,0,3.23.97,3.23,2.92v8.86ZM128.82,65.22c0-.86-.5-1.34-1.28-1.34h-.65c-.78,0-1.28.48-1.28,1.34v7.98c0,.86.5,1.34,1.28,1.34h.65c.78,0,1.28-.48,1.28-1.34v-7.98Z"/>
    <path class="cls-2" d="M135.27,76.08c0,.27-.21.48-.48.48h-1.2c-.27,0-.48-.21-.48-.48v-13.73c0-.27.21-.48.48-.48h1.2c.27,0,.48.21.48.48v13.73Z"/>
    <path class="cls-2" d="M140.46,76.56c-1.76,0-3.25-.94-3.25-2.92v-1.91c0-.27.21-.48.48-.48h1.2c.25,0,.48.21.48.48v1.47c0,.86.48,1.34,1.28,1.34h.71c.8,0,1.22-.55,1.22-1.34v-.82c0-1.2-.63-1.57-1.3-1.97l-2.6-1.53c-.86-.5-1.36-1.24-1.36-2.58v-1.49c0-1.93,1.45-2.94,3.23-2.94h1.03c1.85,0,3.23,1.01,3.23,2.98v1.64c0,.27-.21.48-.48.48h-1.2c-.25,0-.48-.21-.48-.48v-1.26c0-.82-.44-1.34-1.28-1.34h-.67c-.8,0-1.22.52-1.22,1.32v.59c0,.73.19,1.05.92,1.49l2.48,1.47c1.24.73,1.87,1.53,1.87,3v1.87c0,1.74-1.3,2.94-2.94,2.94h-1.34Z"/>
    <path class="cls-2" d="M149.74,76.56c-1.76,0-3.25-.94-3.25-2.92v-1.91c0-.27.21-.48.48-.48h1.2c.25,0,.48.21.48.48v1.47c0,.86.48,1.34,1.28,1.34h.71c.8,0,1.22-.55,1.22-1.34v-.82c0-1.2-.63-1.57-1.3-1.97l-2.6-1.53c-.86-.5-1.36-1.24-1.36-2.58v-1.49c0-1.93,1.45-2.94,3.23-2.94h1.03c1.85,0,3.23,1.01,3.23,2.98v1.64c0,.27-.21.48-.48.48h-1.2c-.25,0-.48-.21-.48-.48v-1.26c0-.82-.44-1.34-1.28-1.34h-.67c-.8,0-1.22.52-1.22,1.32v.59c0,.73.19,1.05.92,1.49l2.48,1.47c1.24.73,1.87,1.53,1.87,3v1.87c0,1.74-1.3,2.94-2.94,2.94h-1.34Z"/>
    <path class="cls-2" d="M160.55,72.78h-2.58l-.46,3.34c-.04.29-.23.44-.5.44h-1.2c-.25,0-.42-.17-.42-.42,0-.08.02-.29.06-.5l1.99-13.29c.04-.34.23-.48.5-.48h2.77c.27,0,.46.15.5.48l1.99,13.29c.04.27.06.42.06.5,0,.25-.19.42-.44.42h-1.36c-.29,0-.44-.17-.48-.44l-.44-3.34ZM158.22,70.81h2.1l-.99-7.1h-.08l-1.03,7.1Z"/>
    <path class="cls-2" d="M170.21,71.35v-9.01c0-.25.21-.48.48-.48h1.13c.27,0,.48.23.48.48v13.73c0,.27-.21.48-.48.48h-1.24c-.31,0-.48-.1-.61-.46l-3.07-9.15v9.13c0,.27-.21.48-.48.48h-1.11c-.27,0-.48-.21-.48-.48v-13.73c0-.25.21-.48.48-.48h1.34c.29,0,.48.1.61.46l2.94,9.03Z"/>
    <path class="cls-2" d="M179.81,65.22c0-.86-.5-1.34-1.28-1.34h-.65c-.78,0-1.28.48-1.28,1.34v7.98c0,.86.5,1.34,1.28,1.34h.65c.78,0,1.28-.48,1.28-1.34v-1.47c0-.27.23-.48.48-.48h1.2c.27,0,.48.21.48.48v1.91c0,1.97-1.49,2.92-3.25,2.92h-1.05c-1.76,0-3.23-.94-3.23-2.92v-8.86c0-1.95,1.47-2.92,3.23-2.92h1.05c1.76,0,3.25.97,3.25,2.92v1.7c0,.27-.21.48-.48.48h-1.2c-.25,0-.48-.21-.48-.48v-1.26Z"/>
    <path class="cls-2" d="M184.37,76.56c-.25,0-.48-.21-.48-.48v-13.75c0-.25.23-.46.48-.46h6.03c.27,0,.48.21.48.46v1.07c0,.27-.21.48-.48.48h-4.35v4.24h3.61c.27,0,.48.21.48.48v1.07c0,.25-.21.46-.48.46h-3.61v4.41h4.45c.27,0,.48.21.48.46v1.07c0,.27-.21.48-.48.48h-6.13Z"/>
  </g>
  <g>
    <path class="cls-1" d="M206.72,82.29c0-1.4-.83-2.3-2.19-2.3h-.83c-1.44,0-2.19.83-2.19,2.3v2.34c0,.47-.4.83-.83.83h-2.05c-.47,0-.83-.36-.83-.83v-3.09c0-3.27,2.48-5,5.5-5h1.58c2.98,0,5.53,1.69,5.53,5v2.08c0,1.9-.32,3.02-1.83,4.74l-5.86,6.65c-.83.93-1.08,1.62-1.08,2.37v.86h7.91c.47,0,.83.36.83.79v1.83c0,.47-.36.83-.83.83h-10.85c-.43,0-.83-.36-.83-.83v-2.44c0-2.41.29-3.74,1.94-5.57l5.93-6.68c.58-.65.97-1.51.97-2.34v-1.55Z"/>
    <path class="cls-1" d="M219.84,101.7h-2.84c-2.73,0-5.03-2.01-5.03-5v-15.16c0-2.98,2.23-5,5.03-5h2.84c2.69,0,5.03,2.08,5.03,5v15.16c0,2.98-2.23,5-5.03,5ZM221.17,83.01c0-1.76-.47-3.02-2.19-3.02h-1.11c-1.8,0-2.19,1.22-2.19,3.02v12.22c0,1.98.43,3.02,2.19,3.02h1.11c1.44,0,2.19-.83,2.19-2.3v-12.94Z"/>
    <path class="cls-1" d="M235.38,82.29c0-1.4-.83-2.3-2.19-2.3h-.83c-1.44,0-2.19.83-2.19,2.3v2.34c0,.47-.4.83-.83.83h-2.05c-.47,0-.83-.36-.83-.83v-3.09c0-3.27,2.48-5,5.5-5h1.58c2.98,0,5.53,1.69,5.53,5v2.08c0,1.9-.32,3.02-1.83,4.74l-5.86,6.65c-.83.93-1.08,1.62-1.08,2.37v.86h7.91c.47,0,.83.36.83.79v1.83c0,.47-.36.83-.83.83h-10.85c-.43,0-.83-.36-.83-.83v-2.44c0-2.41.29-3.74,1.94-5.57l5.93-6.68c.57-.65.97-1.51.97-2.34v-1.55Z"/>
    <path class="cls-1" d="M244.32,89.84c0,.47-.39.83-.83.83h-1.9c-.47,0-.83-.36-.83-.83v-12.51c0-.43.36-.79.83-.79h10.89c.47,0,.83.36.83.79v1.83c0,.47-.36.83-.83.83h-8.16v5.71c.57-.72,1.62-1.44,3.67-1.44,3.7,0,5.32,2.41,5.32,5.61v6.83c0,3.38-2.55,5-5.57,5h-1.8c-3.05,0-5.54-1.65-5.54-5v-2.19c0-.47.36-.83.83-.83h2.05c.43,0,.83.36.83.83v1.44c0,1.47.75,2.3,2.19,2.3h1.11c1.37,0,2.19-.83,2.19-2.3v-5.93c0-1.22-.86-2.3-2.19-2.3h-.86c-1.33,0-2.23.75-2.23,1.9v.22Z"/>
  </g>
</svg>