<svg width="25" height="24" viewBox="0 0 25 24" fill="none" xmlns="http://www.w3.org/2000/svg">
<path d="M17.1402 6.20592C17.1402 5.1443 17.1402 4.61348 17.0235 4.17798C16.7068 2.99614 15.7837 2.07302 14.6018 1.75634C14.1663 1.63965 13.6355 1.63965 12.5739 1.63965C11.5123 1.63965 10.9815 1.63965 10.5459 1.75634C9.36411 2.07302 8.44098 2.99614 8.12431 4.17798C8.00762 4.61348 8.00762 5.1443 8.00762 6.20592M4.81122 22.1879H20.3366C21.6152 22.1879 22.2546 22.1879 22.743 21.939C23.1726 21.7202 23.5218 21.3709 23.7407 20.9413C23.9896 20.4529 23.9896 19.8135 23.9896 18.5349V9.85895C23.9896 8.58027 23.9896 7.94093 23.7407 7.45254C23.5218 7.02294 23.1726 6.67366 22.743 6.45477C22.2546 6.20592 21.6152 6.20592 20.3366 6.20592H4.81122C3.53255 6.20592 2.89321 6.20592 2.40482 6.45477C1.97522 6.67366 1.62594 7.02294 1.40705 7.45254C1.1582 7.94093 1.1582 8.58027 1.1582 9.85895V18.5349C1.1582 19.8135 1.1582 20.4529 1.40705 20.9413C1.62594 21.3709 1.97522 21.7202 2.40482 21.939C2.89321 22.1879 3.53255 22.1879 4.81122 22.1879Z" stroke="#003158" stroke-width="2" stroke-linecap="round" stroke-linejoin="round"/>
</svg>
