<svg width="27" height="28" viewBox="0 0 27 28" fill="none" xmlns="http://www.w3.org/2000/svg">
<path d="M13.2596 18.304L9.48704 14.5315M13.2596 18.304C15.0161 17.6359 16.7012 16.7934 18.2896 15.789M13.2596 18.304V24.5915C13.2596 24.5915 17.0698 23.8999 18.2896 22.0765C19.6477 20.0393 18.2896 15.789 18.2896 15.789M9.48704 14.5315C10.1562 12.7954 10.9988 11.1312 12.0021 9.56429C13.4673 7.22154 15.5075 5.2926 17.9287 3.96095C20.3499 2.6293 23.0715 1.93923 25.8347 1.95637C25.8347 5.37679 24.8538 11.3877 18.2896 15.789M9.48704 14.5315H3.1995C3.1995 14.5315 3.89113 10.7212 5.71451 9.50142C7.75168 8.14331 12.0021 9.50142 12.0021 9.50142M3.82825 20.1902C1.94199 21.7747 1.31323 26.4778 1.31323 26.4778C1.31323 26.4778 6.01632 25.849 7.60078 23.9628C8.49361 22.9065 8.48103 21.2843 7.4876 20.3034C6.99881 19.8369 6.35495 19.5673 5.67959 19.5464C5.00422 19.5255 4.34493 19.7548 3.82825 20.1902Z" stroke="#003158" stroke-width="2" stroke-linecap="round" stroke-linejoin="round"/>
</svg>
