<svg width="29" height="29" viewBox="0 0 29 29" fill="none" xmlns="http://www.w3.org/2000/svg">
<circle cx="14.5259" cy="14.3264" r="14" fill="#E74B10" fill-opacity="0.14"/>
<path d="M19.5702 18.986L19.5693 18.9851H19.5702L17.8885 16.0389C17.7922 15.8713 17.5802 15.8143 17.4144 15.9112L17.3196 15.9663L16.6299 14.7582C16.6703 14.7201 16.7098 14.6815 16.7484 14.6425C17.6201 13.7608 18.1591 12.543 18.1591 11.198C18.1591 9.85305 17.6201 8.6348 16.7484 7.75314C15.8762 6.87148 14.6726 6.32642 13.3422 6.32642C12.0124 6.32596 10.8083 6.87102 9.93655 7.75268C9.06481 8.63434 8.52588 9.85213 8.52588 11.1976C8.52588 12.543 9.06481 13.7604 9.93655 14.642C10.8087 15.5232 12.0128 16.0687 13.3427 16.0687C13.8312 16.0687 14.303 15.9948 14.7479 15.858L15.4371 17.0652L15.3413 17.1212C15.1756 17.2186 15.1193 17.433 15.2151 17.6006L15.2265 17.619L16.8805 20.5165C16.8887 20.5353 16.8991 20.5533 16.9105 20.5702C17.1239 20.9293 17.4608 21.1718 17.8344 21.2728C18.2076 21.3738 18.6181 21.3348 18.9804 21.1323C18.9999 21.1227 19.019 21.1112 19.0367 21.0983C19.3881 20.882 19.6242 20.5436 19.7236 20.1694C19.8258 19.7841 19.7827 19.3584 19.5702 18.986ZM13.3422 15.3662C12.204 15.3662 11.1738 14.9001 10.4278 14.1456C9.68184 13.3912 9.22055 12.3492 9.22055 11.198C9.22055 10.0468 9.68184 9.00491 10.4278 8.25045C11.1738 7.49599 12.204 7.02945 13.3422 7.02945C14.4805 7.02945 15.5107 7.49599 16.2567 8.25045C17.0026 9.00491 17.4639 10.0468 17.4639 11.198C17.4639 12.3492 17.0026 13.3912 16.2567 14.1456C15.5107 14.8996 14.4805 15.3662 13.3422 15.3662ZM15.4008 15.6031C15.6405 15.4888 15.8689 15.3547 16.0846 15.2032L16.7202 16.3162L16.036 16.7157L15.4008 15.6031ZM19.0521 19.988C18.9967 20.196 18.8664 20.3834 18.6739 20.5014H18.6744L18.6576 20.511C18.456 20.629 18.2244 20.652 18.0133 20.595C17.8026 20.5376 17.6133 20.3999 17.4966 20.1955H17.4957L15.9879 17.5542L17.4612 16.6937L18.9695 19.3364H18.97C19.0857 19.5398 19.1089 19.7745 19.0521 19.988Z" fill="#E74B10"/>
<path d="M13.4769 10.5625H13.4588V9.28726C13.7584 9.3376 14.0362 9.46763 14.2924 9.68157L14.6713 9.05654C14.2888 8.75452 13.8847 8.58253 13.4588 8.54897V8.20081H13.0871V8.54058C12.7082 8.56156 12.4015 8.69999 12.1669 8.94748C11.9324 9.19497 11.8133 9.51797 11.8133 9.90809C11.8133 10.2982 11.9143 10.596 12.12 10.7932C12.3257 10.9945 12.6469 11.1539 13.0871 11.2756V12.5928C12.7407 12.5298 12.4051 12.3327 12.0767 12.0013L11.6509 12.5928C12.0767 13.0206 12.5531 13.2681 13.0871 13.331V13.826H13.4588V13.3352C13.8558 13.3143 14.1734 13.1758 14.4151 12.9283C14.6569 12.6808 14.776 12.3578 14.776 11.9593C14.776 11.5608 14.6713 11.263 14.462 11.0533C14.2527 10.8435 13.9244 10.6799 13.4769 10.5583V10.5625ZM13.0871 10.4408C12.8706 10.3611 12.7227 10.273 12.6433 10.1849C12.5639 10.0969 12.5278 9.9752 12.5278 9.82419C12.5278 9.67318 12.5783 9.54733 12.6757 9.44246C12.7732 9.34179 12.9139 9.27887 13.0871 9.26209V10.4366V10.4408ZM13.9063 12.4208C13.798 12.5256 13.6501 12.5886 13.4624 12.6095V11.3888C13.697 11.4686 13.8558 11.5566 13.9424 11.6489C14.029 11.7412 14.0723 11.8671 14.0723 12.0265C14.0723 12.1859 14.0182 12.3159 13.9099 12.4208H13.9063Z" fill="#E74B10"/>
</svg>
