<svg width="29" height="28" viewBox="0 0 29 28" fill="none" xmlns="http://www.w3.org/2000/svg">
<circle cx="14.335" cy="13.9932" r="14" fill="#68C6DD" fill-opacity="0.2"/>
<path d="M18.5741 20.1681C18.7684 20.0501 18.8998 19.8628 18.9557 19.6548C19.013 19.4413 18.9896 19.2066 18.8728 19.0027H18.8724L17.3505 16.3606L15.864 17.2211L17.3853 19.8628H17.3863C17.504 20.0667 17.695 20.2044 17.9076 20.2618C18.1206 20.3187 18.3542 20.2958 18.5576 20.1778L18.5746 20.1686L18.5741 20.1681ZM10.1573 10.7076H11.2778C11.4716 10.7076 11.6288 10.8651 11.6288 11.0589V12.5944C11.6288 12.7886 11.4716 12.9457 11.2778 12.9457H10.1573C9.96353 12.9457 9.8064 12.7882 9.8064 12.5944V11.0589C9.8064 10.8646 9.96353 10.7076 10.1573 10.7076ZM10.9274 11.4106H10.5082V12.2431H10.9274V11.4106ZM12.6338 9.73229H13.7544C13.9482 9.73229 14.1053 9.88979 14.1053 10.084V12.5944C14.1053 12.7886 13.9482 12.9457 13.7544 12.9457H12.6338C12.4401 12.9457 12.2834 12.7882 12.2834 12.5944V10.084C12.2834 9.88979 12.4405 9.73229 12.6338 9.73229ZM13.4039 10.4353H12.9848V12.2426H13.4039V10.4353ZM15.1104 8.69316H16.2309C16.4247 8.69316 16.5818 8.85066 16.5818 9.04489V12.5944C16.5818 12.7886 16.4247 12.9457 16.2309 12.9457H15.1104C14.9166 12.9457 14.7595 12.7882 14.7595 12.5944V9.04489C14.7595 8.85066 14.9166 8.69316 15.1104 8.69316ZM15.8805 9.39617H15.4613V12.2426H15.8805V9.39617ZM13.1946 5.99362C14.5368 5.99362 15.7513 6.53867 16.6313 7.4203C17.5109 8.30194 18.0546 9.51969 18.0546 10.8651C18.0546 12.2105 17.5109 13.4278 16.6313 14.3094C16.5924 14.3485 16.5525 14.387 16.5117 14.4251L17.2076 15.6332L17.3033 15.5781C17.4705 15.4813 17.6845 15.5382 17.7816 15.7058L19.4784 18.6515H19.4775L19.4784 18.6528C19.6928 19.0252 19.7363 19.4509 19.6333 19.8361C19.5329 20.2104 19.2947 20.5488 18.9402 20.7651C18.9223 20.7779 18.903 20.7894 18.8833 20.7991C18.5178 21.0016 18.1036 21.0406 17.7271 20.9396C17.3501 20.8385 17.0101 20.5961 16.7948 20.237C16.7834 20.22 16.7728 20.2021 16.7646 20.1833L15.0957 17.2858L15.0843 17.2675C14.9876 17.0999 15.0444 16.8854 15.2116 16.7881L15.3083 16.7321L14.6129 15.5249C14.1639 15.6617 13.6879 15.7356 13.195 15.7356C11.8532 15.7356 10.6383 15.1901 9.7583 14.309C8.87873 13.4273 8.33496 12.2096 8.33496 10.8646C8.33496 9.51969 8.87873 8.30148 9.7583 7.41985C10.6379 6.53821 11.8528 5.99316 13.1946 5.99316V5.99362ZM15.9125 16.3826L16.6029 15.9831L15.9615 14.8701C15.7439 15.0216 15.5135 15.1557 15.2716 15.27L15.9125 16.3826ZM16.1352 7.9176C15.3825 7.16316 14.343 6.69663 13.1946 6.69663C12.0461 6.69663 11.0066 7.16316 10.254 7.9176C9.5013 8.67204 9.03587 9.71392 9.03587 10.8651C9.03587 12.0163 9.5013 13.0582 10.254 13.8126C11.0066 14.567 12.0461 15.0331 13.1946 15.0331C14.343 15.0331 15.3825 14.5666 16.1352 13.8126C16.8878 13.0582 17.3533 12.0163 17.3533 10.8651C17.3533 9.71392 16.8878 8.67204 16.1352 7.9176Z" fill="#6AC5DC"/>
</svg>
