<svg width="28" height="25" viewBox="0 0 28 25" fill="none" xmlns="http://www.w3.org/2000/svg">
<path d="M23.1949 9.17565V1.58203M19.3981 5.37884H26.9917M7.75453 14.4736H13.3232C15.4496 14.4736 16.5128 14.4736 17.325 14.8875C18.0394 15.2515 18.6202 15.8323 18.9843 16.5467C19.3981 17.3589 19.3981 20.3789 19.3981 22.5053V22.5053C19.3981 23.2833 18.7674 23.914 17.9894 23.914H3.08838C2.31038 23.914 1.67969 23.2833 1.67969 22.5053V22.5053C1.67969 20.3789 1.67963 17.3589 2.09346 16.5467C2.45747 15.8323 3.03831 15.2515 3.75273 14.8875C4.56491 14.4736 5.62812 14.4736 7.75453 14.4736ZM14.9685 6.01164C14.9685 8.45805 12.9853 10.4413 10.5389 10.4413C8.09245 10.4413 6.10924 8.45805 6.10924 6.01164C6.10924 3.56524 8.09245 1.58203 10.5389 1.58203C12.9853 1.58203 14.9685 3.56524 14.9685 6.01164Z" stroke="#003158" stroke-width="2" stroke-linecap="round" stroke-linejoin="round"/>
</svg>
