<svg width="28" height="26" viewBox="0 0 28 26" fill="none" xmlns="http://www.w3.org/2000/svg">
<path d="M10.1441 16.4757C10.1441 16.4757 11.944 18.5328 14.9439 18.5328C17.9438 18.5328 19.7437 16.4757 19.7437 16.4757M18.7152 9.61887H18.7289M11.1726 9.61887H11.1863M14.9439 24.704C21.3817 24.704 26.6006 19.4851 26.6006 13.0473C26.6006 6.6095 21.3817 1.39062 14.9439 1.39062C8.5061 1.39062 3.28723 6.6095 3.28723 13.0473C3.28723 14.3501 3.50096 15.603 3.89526 16.7728C4.04364 17.213 4.11783 17.4331 4.13121 17.6022C4.14443 17.7692 4.13444 17.8863 4.09312 18.0486C4.05129 18.213 3.95893 18.384 3.7742 18.7259L1.5311 22.8778C1.21114 23.47 1.05117 23.7661 1.08697 23.9947C1.11816 24.1937 1.23531 24.369 1.40732 24.4739C1.6048 24.5944 1.93958 24.5598 2.60914 24.4906L9.63198 23.7646C9.84465 23.7426 9.95099 23.7316 10.0479 23.7353C10.1432 23.739 10.2105 23.7479 10.3035 23.7694C10.398 23.7912 10.5169 23.8369 10.7546 23.9285C12.0547 24.4294 13.4672 24.704 14.9439 24.704ZM19.4009 9.61887C19.4009 9.99756 19.0939 10.3046 18.7152 10.3046C18.3365 10.3046 18.0295 9.99756 18.0295 9.61887C18.0295 9.24017 18.3365 8.93318 18.7152 8.93318C19.0939 8.93318 19.4009 9.24017 19.4009 9.61887ZM11.8583 9.61887C11.8583 9.99756 11.5513 10.3046 11.1726 10.3046C10.7939 10.3046 10.4869 9.99756 10.4869 9.61887C10.4869 9.24017 10.7939 8.93318 11.1726 8.93318C11.5513 8.93318 11.8583 9.24017 11.8583 9.61887Z" stroke="#003158" stroke-width="2" stroke-linecap="round" stroke-linejoin="round"/>
</svg>
