<svg width="29" height="29" viewBox="0 0 29 29" fill="none" xmlns="http://www.w3.org/2000/svg">
<circle cx="14.0566" cy="14.3264" r="14" fill="#68C6DD" fill-opacity="0.2"/>
<path d="M14.0566 7.90356C10.5144 7.90356 7.63379 10.7842 7.63379 14.3264C7.63379 17.8685 10.5144 20.7491 14.0566 20.7491C17.5987 20.7491 20.4794 17.8685 20.4794 14.3264C20.4794 10.7842 17.5987 7.90356 14.0566 7.90356ZM8.2857 14.6475H10.516C10.5465 15.4086 10.6878 16.1488 10.9255 16.8425H8.85251C8.52656 16.1729 8.32745 15.4311 8.2857 14.6475ZM14.3777 11.1679V8.94887C15.1533 9.52211 15.7795 10.2864 16.2243 11.1679H14.3777ZM16.5069 11.8102C16.767 12.4975 16.9195 13.2377 16.9549 14.0052H14.3777V11.8102H16.5069ZM13.7354 8.94887V11.1679H11.8889C12.3321 10.2864 12.9599 9.52211 13.7354 8.94887ZM13.7354 11.8102V14.0052H11.1583C11.192 13.2377 11.3462 12.4975 11.6063 11.8102H13.7354ZM10.516 14.0052H8.2857C8.32906 13.2216 8.52816 12.4814 8.85251 11.8102H10.9255C10.6878 12.5039 10.5465 13.2425 10.516 14.0052ZM11.1583 14.6475H13.7354V16.8425H11.6063C11.3462 16.1552 11.192 15.415 11.1583 14.6475ZM13.7354 17.4848V19.7038C12.9599 19.1306 12.3337 18.3663 11.8889 17.4848H13.7354ZM14.3777 19.7038V17.4848H16.2243C15.7811 18.3663 15.1533 19.1306 14.3777 19.7038ZM14.3777 16.8425V14.6475H16.9549C16.9211 15.415 16.767 16.1552 16.5069 16.8425H14.3777ZM17.5971 14.6475H19.8275C19.7841 15.4311 19.585 16.1713 19.2606 16.8425H17.1877C17.4253 16.1488 17.5666 15.4102 17.5971 14.6475ZM17.5971 14.0052C17.5666 13.2441 17.4253 12.5039 17.1877 11.8102H19.2606C19.5866 12.4798 19.7857 13.2216 19.8275 14.0052H17.5971ZM18.8945 11.1679H16.934C16.486 10.1724 15.8293 9.29892 15.0039 8.62452C16.6289 8.89428 18.0259 9.84164 18.8945 11.1679ZM13.1092 8.62452C12.2839 9.29892 11.6272 10.1724 11.1792 11.1679H9.21861C10.0873 9.84164 11.4843 8.89428 13.1092 8.62452ZM9.21861 17.4848H11.1792C11.6272 18.4803 12.2839 19.3538 13.1092 20.0282C11.4843 19.7584 10.0873 18.8111 9.21861 17.4848ZM15.0055 20.0282C15.8309 19.3538 16.4876 18.4803 16.9356 17.4848H18.8962C18.0275 18.8111 16.6305 19.7584 15.0072 20.0282H15.0055Z" fill="#68C6DD"/>
</svg>
