<svg width="120" height="25" viewBox="0 0 120 25" fill="none" xmlns="http://www.w3.org/2000/svg">
<mask id="mask0_69_244" style="mask-type:luminance" maskUnits="userSpaceOnUse" x="0" y="0" width="120" height="25">
<path d="M119.144 0.867939H0V24.7095H119.144V0.867939Z" fill="white"/>
</mask>
<g mask="url(#mask0_69_244)">
<path d="M36.9736 24.3135V20.1864H36.3685C35.4276 20.1864 35.1921 19.7242 35.1921 18.9648V13.418C35.1921 10.1823 33.2092 7.07878 27.9664 7.07878C22.8579 7.07878 20.4717 9.98424 20.102 12.5595L24.908 13.0548C25.0761 12.1634 25.6474 10.8757 27.7647 10.8757C29.6133 10.8757 30.1846 11.9322 30.1846 12.7246C30.1846 13.2859 29.9492 13.6491 29.2434 13.7812L24.8408 14.5075C21.8833 15.0028 19.6315 16.5216 19.6315 19.7572C19.6315 22.2995 21.6816 24.7097 25.681 24.7097C28 24.7097 29.714 23.8513 30.7894 22.3985C31.4618 24.0494 33.3774 24.3135 34.5873 24.3135H36.9736ZM24.6392 19.2289C24.6392 18.3375 25.1097 17.6441 26.6557 17.413L30.2853 16.8847V17.5121C30.2853 19.4931 28.7731 20.9458 26.7901 20.9458C25.3785 20.9458 24.6392 20.3185 24.6392 19.2289Z" fill="black"/>
<path d="M39.2033 1.2018V24.3135H44.3118V1.2018H39.2033Z" fill="black"/>
<path d="M47.9556 7.47497V24.3135H53.064V7.47497H47.9556Z" fill="black"/>
<path d="M55.3301 11.503H57.8171V19.427C57.8171 22.5636 59.2621 24.3135 63.2279 24.3135H66.6224V20.1864H64.3371C63.1607 20.1864 62.9255 19.5261 62.9255 18.6676V11.503H66.2862V7.47497H62.9255V2.48945H57.8171V7.47497H55.3301V11.503Z" fill="black"/>
<path d="M69.1689 7.47497V24.3135H74.2777V7.47497H69.1689Z" fill="black"/>
<path d="M85.7186 20.5496C83.1979 20.5496 82.2231 18.5356 82.2231 15.9273C82.2231 13.2529 83.1979 11.2719 85.7186 11.2719C87.735 11.2719 88.6425 12.4605 89.0121 14.2104L93.9526 13.6821C93.2806 9.42295 90.2557 7.07878 85.6849 7.07878C80.1395 7.07878 77.014 10.8097 77.014 15.9273C77.014 20.9788 80.1061 24.7097 85.6176 24.7097C90.054 24.7097 93.0117 22.4316 93.8182 18.4035L88.9786 17.8092C88.6762 19.427 87.6678 20.5496 85.7186 20.5496Z" fill="black"/>
<path d="M110.607 18.9978C110.607 16.1253 108.657 14.6396 105.297 14.0123L102.339 13.451C101.264 13.2529 100.625 12.9227 100.625 12.0973C100.625 11.47 101.096 10.7106 102.81 10.7106C104.591 10.7106 105.33 11.6681 105.599 12.8237L110.271 12.2954C109.901 9.75313 108.12 7.07878 102.944 7.07878C98.0036 7.07878 95.7855 9.85218 95.7855 12.5265C95.7855 15.7622 98.4742 17.1158 101.028 17.5781L103.784 18.0733C104.927 18.2714 105.532 18.6676 105.532 19.427C105.532 20.2194 105.028 21.0448 103.146 21.0448C101.398 21.0448 100.423 20.2524 100.255 18.7667L95.1469 19.2619C95.3483 22.0023 97.5329 24.7097 103.146 24.7097C108.321 24.7097 110.607 22.1344 110.607 18.9978Z" fill="black"/>
<path d="M115.844 24.6573C117.667 24.6573 119.144 23.2057 119.144 21.4151C119.144 19.6244 117.667 18.1729 115.844 18.1729C114.021 18.1729 112.544 19.6244 112.544 21.4151C112.544 23.2057 114.021 24.6573 115.844 24.6573Z" fill="#FF441B"/>
<path d="M47.9079 3.37993C47.9079 4.76727 49.0537 5.89192 50.465 5.89192C51.8763 5.89192 53.0221 4.76727 53.0221 3.37993C53.0221 1.9926 51.8763 0.867939 50.465 0.867939C49.0537 0.867939 47.9079 1.9926 47.9079 3.37993Z" fill="black"/>
<path d="M69.188 3.37993C69.188 4.76727 70.3337 5.89192 71.745 5.89192C73.1563 5.89192 74.3021 4.76727 74.3021 3.37993C74.3021 1.9926 73.1563 0.867939 71.745 0.867939C70.3337 0.867939 69.188 1.9926 69.188 3.37993Z" fill="black"/>
<path d="M19.1123 24.4532L10.8055 12.5442L18.7746 1.23229H12.629L5.40277 11.3168V1.23229H0V24.4532H5.40277V13.7052L12.9666 24.4532H19.1123Z" fill="black"/>
</g>
</svg>
