<svg xmlns="http://www.w3.org/2000/svg" width="39" height="37" viewBox="0 0 39 37" fill="none">
<path d="M19.166 29C25.1307 29 29.966 24.299 29.966 18.5C29.966 12.701 25.1307 8 19.166 8C13.2013 8 8.36602 12.701 8.36602 18.5C8.36602 24.299 13.2013 29 19.166 29Z" fill="#FF3B30" fill-opacity="0.14"/>
<path d="M15.566 28.4025V32.5C15.566 34.433 17.1778 36 19.166 36C21.1542 36 22.766 34.433 22.766 32.5V28.4025M19.166 1V2.75M2.96602 18.5H1.16602M7.46602 7.125L6.38584 6.07483M30.866 7.125L31.9465 6.07483M37.166 18.5H35.366M29.966 18.5C29.966 24.299 25.1307 29 19.166 29C13.2013 29 8.36602 24.299 8.36602 18.5C8.36602 12.701 13.2013 8 19.166 8C25.1307 8 29.966 12.701 29.966 18.5Z" stroke="#FF3B30" stroke-width="2" stroke-linecap="round" stroke-linejoin="round"/>
<script xmlns=""/></svg>